<svg xmlns="http://www.w3.org/2000/svg" width="32" height="31.938" viewBox="0 0 32 31.938">
  <defs>
    <style>
      .cls-1 {
        fill: #2f2f2f;
        fill-rule: evenodd;
      }
    </style>
  </defs>
  <path id="add" class="cls-1" d="M287.5,108.436a14.67,14.67,0,0,1,3.427,5.254,16.131,16.131,0,0,1,1.047,6.016,16.766,16.766,0,0,1-1.269,6.059,16,16,0,0,1-3.569,5.33,16.226,16.226,0,0,1-5.39,3.618,16.819,16.819,0,0,1-6.066,1.266,16.167,16.167,0,0,1-6.024-1.045,14.7,14.7,0,0,1-5.26-3.423,14.49,14.49,0,0,1-3.377-5.2,16.11,16.11,0,0,1-1.046-6.016,16.744,16.744,0,0,1,1.268-6.059,16.218,16.218,0,0,1,3.621-5.383,16.039,16.039,0,0,1,5.338-3.565,16.8,16.8,0,0,1,6.066-1.266,16.167,16.167,0,0,1,6.024,1.045,14.53,14.53,0,0,1,5.21,3.372h0Zm-9.356,13.783,6.791-.124a2.386,2.386,0,0,0,2.305-2.3,2.183,2.183,0,0,0-2.222-2.22l-6.791.125,0.074-6.833a2.184,2.184,0,0,0-2.223-2.22,2.386,2.386,0,0,0-2.305,2.3l-0.124,6.783-6.844.177a2.386,2.386,0,0,0-2.305,2.3,2.184,2.184,0,0,0,2.222,2.219l6.842-.074-0.124,6.783a2.183,2.183,0,0,0,2.222,2.22,2.386,2.386,0,0,0,2.305-2.3Z" transform="translate(-259.969 -104.031)"/>
</svg>
