<svg xmlns="http://www.w3.org/2000/svg" width="32" height="32" viewBox="0 0 32 32">
  <defs>
    <style>
      .cls-1 {
        fill: #2f2f2f;
        fill-rule: evenodd;
      }
    </style>
  </defs>
  <path id="alipay" class="cls-1" d="M748.432,590.748a30.9,30.9,0,0,0,2.992-7.677h-7.38v-2.756h8.776v-1.181h-8.776V575h-3.989v4.134h-7.978v1.181h7.978v2.756h-6.781v1.181h13.762a0.389,0.389,0,0,1-.2.393c0,1.378-1,3.347-1.794,4.921-10.172-3.936-13.164-1.574-13.962-1.181-6.781,4.725-.4,10.63.6,10.433,7.18,1.575,11.767-1.378,14.958-5.118a0.738,0.738,0,0,0,.6.2C749.429,595.078,760,600,760,600v-5.9c-1.6,0-7.38-1.969-11.568-3.346h0Zm-5.186,1.771c-4.986,6.3-10.969,4.331-11.966,3.937-2.394-.591-3.191-4.921-0.2-6.3,4.986-1.575,9.374.2,12.565,1.772a2.426,2.426,0,0,1-.4.59h0Z" transform="translate(-728 -571.5)"/>
</svg>
