<svg xmlns="http://www.w3.org/2000/svg" width="32" height="32" viewBox="0 0 32 32">
  <defs>
    <style>
      .cls-1 {
        fill: #2f2f2f;
        fill-rule: evenodd;
      }
    </style>
  </defs>
  <path id="android" class="cls-1" d="M549.243,478.687a1.789,1.789,0,0,1,1.246.464,1.475,1.475,0,0,1,.511,1.134v9.426a1.44,1.44,0,0,1-.511,1.1,1.792,1.792,0,0,1-1.246.463h-0.575a1.791,1.791,0,0,1-1.246-.463,1.441,1.441,0,0,1-.512-1.1v-9.426a1.473,1.473,0,0,1,.512-1.134,1.787,1.787,0,0,1,1.246-.464h0.575Zm-25.911,0a1.674,1.674,0,0,1,1.214.464,1.516,1.516,0,0,1,.48,1.134v9.426a1.482,1.482,0,0,1-.48,1.1,1.678,1.678,0,0,1-1.214.463h-0.575a1.792,1.792,0,0,1-1.246-.463,1.44,1.44,0,0,1-.511-1.1v-9.426a1.472,1.472,0,0,1,.511-1.134,1.789,1.789,0,0,1,1.246-.464h0.575Zm17.636-7.413a6.891,6.891,0,0,1,1.2.7,8.45,8.45,0,0,1,1.2,1.055,7.647,7.647,0,0,1,1.007,1.326,5.386,5.386,0,0,1,.623,1.518H526.847a6.414,6.414,0,0,1,1.613-2.78,10.882,10.882,0,0,1,2.221-1.726l-1.63-2.556a0.247,0.247,0,0,1-.016-0.24,0.745,0.745,0,0,1,.336-0.367A0.678,0.678,0,0,1,529.85,468a0.489,0.489,0,0,1,.287.08l1.662,2.62a9.521,9.521,0,0,1,7.987.032l1.693-2.652a0.345,0.345,0,0,1,.24-0.064,1.268,1.268,0,0,1,.527.192,0.735,0.735,0,0,1,.367.288,0.168,0.168,0,0,1-.016.191l-1.629,2.588h0Zm-8.914,2.748a0.98,0.98,0,1,0-.7-0.287,0.955,0.955,0,0,0,.7.287h0Zm7.86-.127a0.983,0.983,0,1,0-.7-0.288,0.956,0.956,0,0,0,.7.288h0Zm5.08,3.994,0.031,14.378a1.637,1.637,0,0,1-.463,1.183,1.519,1.519,0,0,1-1.134.479h-0.447V498.4a1.561,1.561,0,0,1-.464,1.119,1.515,1.515,0,0,1-1.134.479h-0.926a1.481,1.481,0,0,1-1.1-.479,1.561,1.561,0,0,1-.464-1.119v-4.473h-5.878V498.4a1.561,1.561,0,0,1-.464,1.119,1.515,1.515,0,0,1-1.134.479h-0.926a1.481,1.481,0,0,1-1.1-.479,1.561,1.561,0,0,1-.464-1.119v-4.473h-0.351a1.517,1.517,0,0,1-1.134-.479,1.637,1.637,0,0,1-.464-1.183V477.889h18.02Z" transform="translate(-520 -468)"/>
</svg>
