<svg xmlns="http://www.w3.org/2000/svg" width="32" height="32" viewBox="0 0 32 32">
  <defs>
    <style>
      .cls-1 {
        fill: #2f2f2f;
        fill-rule: evenodd;
      }
    </style>
  </defs>
  <path id="apple" class="cls-1" d="M597.385,485.005c0.048,4.839,4.563,6.449,4.615,6.471a17.147,17.147,0,0,1-2.382,4.553c-1.434,1.95-2.919,3.889-5.262,3.929-2.3.04-3.043-1.27-5.677-1.27s-3.456,1.23-5.634,1.31c-2.259.081-3.982-2.1-5.427-4.047-2.956-3.974-5.212-11.228-2.18-16.125a8.524,8.524,0,0,1,7.114-4.013c2.221-.037,4.319,1.393,5.674,1.393s3.906-1.719,6.585-1.467a8.249,8.249,0,0,1,6.288,3.169c-0.161.1-3.757,2.042-3.713,6.1h0Zm-9.43-9.63a6.439,6.439,0,0,1,1.824-4.953A7.908,7.908,0,0,1,594.845,468a6.748,6.748,0,0,1-1.789,5.11A6.573,6.573,0,0,1,587.955,475.375Z" transform="translate(-572 -468)"/>
</svg>
