<svg xmlns="http://www.w3.org/2000/svg" width="32" height="32" viewBox="0 0 32 32">
  <defs>
    <style>
      .cls-1 {
        fill: #2f2f2f;
        fill-rule: evenodd;
      }
    </style>
  </defs>
  <path id="bag" class="cls-1" d="M337.6,468H318.4a4.69,4.69,0,0,0-4.8,4.571L312,495.429A4.69,4.69,0,0,0,316.8,500h22.4a4.69,4.69,0,0,0,4.8-4.571l-1.6-22.858A4.69,4.69,0,0,0,337.6,468h0ZM328,483.573a8.884,8.884,0,0,1-3.4-.669,8.7,8.7,0,0,1-2.772-1.82,8.431,8.431,0,0,1-1.865-2.693,8.226,8.226,0,0,1-.683-3.294h1.6a6.759,6.759,0,0,0,.562,2.711,6.908,6.908,0,0,0,1.53,2.209,7.108,7.108,0,0,0,2.262,1.486,7.3,7.3,0,0,0,5.53,0,7.123,7.123,0,0,0,2.263-1.486,6.921,6.921,0,0,0,1.529-2.209,6.759,6.759,0,0,0,.562-2.711h1.6a8.226,8.226,0,0,1-.683,3.294,8.431,8.431,0,0,1-1.865,2.693,8.7,8.7,0,0,1-2.772,1.82A8.884,8.884,0,0,1,328,483.573Z" transform="translate(-312 -468)"/>
</svg>
