<svg xmlns="http://www.w3.org/2000/svg" width="32" height="32" viewBox="0 0 32 32">
  <defs>
    <style>
      .cls-1 {
        fill: #2f2f2f;
        fill-rule: evenodd;
      }
    </style>
  </defs>
  <path id="baidu" class="cls-1" d="M630.384,588.863c3.439-.748,2.969-4.906,2.866-5.816-0.168-1.4-1.795-3.849-4-3.657-2.781.252-3.187,4.321-3.187,4.321C625.682,585.591,626.958,589.609,630.384,588.863Zm3.65,7.232a2.963,2.963,0,0,0-.13,1.692,1.9,1.9,0,0,0,1.637,1.524h1.8v-4.454H635.41A2.1,2.1,0,0,0,634.034,596.1Zm2.727-14.206c1.9,0,3.43-2.211,3.43-4.947S638.659,572,636.761,572s-3.432,2.21-3.432,4.942S634.867,581.889,636.761,581.889Zm8.172,0.326c2.536,0.334,4.165-2.409,4.489-4.485a4.673,4.673,0,0,0-3.1-4.9c-1.8-.418-4.046,2.5-4.25,4.4C641.829,579.562,642.4,581.887,644.933,582.215Zm6.215,12.212a35.066,35.066,0,0,1-6.213-6.4c-3.106-4.9-7.518-2.906-8.993-.414a20.6,20.6,0,0,1-4.084,4.484c-0.33.412-4.74,2.822-3.76,7.224s4.417,4.317,4.417,4.317a18.916,18.916,0,0,0,5.473-.412,11.4,11.4,0,0,1,5.472.166s6.868,2.33,8.748-2.157S651.148,594.427,651.148,594.427ZM639.394,601.1H634.93a3.934,3.934,0,0,1-2.794-1.95,5.2,5.2,0,0,1-.351-3.124,3.922,3.922,0,0,1,3.209-2.928h2.377v-2.96l2.023,0.034V601.1Zm8.318-.032h-5.139a2.425,2.425,0,0,1-2.083-1.956v-5.754l2.083-.034V598.5a1,1,0,0,0,.8.65h2.115v-5.792h2.22v7.712Zm7.275-15.366c0-.994-0.816-3.986-3.839-3.986s-3.432,2.824-3.432,4.822c0,1.906.157,4.568,3.92,4.482S654.987,586.705,654.987,585.705Z" transform="translate(-624.5 -572)"/>
</svg>
