<svg xmlns="http://www.w3.org/2000/svg" width="32" height="32" viewBox="0 0 32 32">
  <defs>
    <style>
      .cls-1 {
        fill: #2f2f2f;
        fill-rule: evenodd;
      }
    </style>
  </defs>
  <path id="bell" class="cls-1" d="M328,392.448c-7.673,0-13.906-1.245-14-4.362v-0.07a2.637,2.637,0,0,1,.37-1.315l0.02-.074c2.016-2.672,3.9-5.9,3.9-10.221,0.006-4.851,2.95-8.9,7.386-9.952V366.31a2.326,2.326,0,0,1,4.652,0v0.144c4.432,1.053,7.377,5.1,7.383,9.956a16.188,16.188,0,0,0,3.518,9.724,4.051,4.051,0,0,1,.335.452c0.013,0.019.029,0.041,0.045,0.06l0.006,0.029a2.6,2.6,0,0,1,.387,1.341C342,391.187,335.731,392.448,328,392.448Zm5.273,0.877a5.829,5.829,0,0,1-9.76.067c1.407,0.112,2.918.16,4.487,0.16C329.865,393.552,331.647,393.478,333.273,393.325Z" transform="translate(-312 -364)"/>
</svg>
