<svg xmlns="http://www.w3.org/2000/svg" width="32" height="32" viewBox="0 0 32 32">
  <defs>
    <style>
      .cls-1 {
        fill: #2f2f2f;
        fill-rule: evenodd;
      }
    </style>
  </defs>
  <path id="box" class="cls-1" d="M445.5,860.707l-10,3.14c-1.381.433-2.5-.109-2.5-1.212V847.057a3.418,3.418,0,0,1,2.5-2.781l10-3.14c1.381-.433,2.5.109,2.5,1.212v15.579A3.418,3.418,0,0,1,445.5,860.707Zm1.178-21.986-11.115,3.821a11.375,11.375,0,0,1-6.351,0l-11.91-4.094c-1.754-.6-1.754-1.58,0-2.183l11.116-3.821a11.375,11.375,0,0,1,6.351,0l11.909,4.094C448.432,837.141,448.432,838.118,446.678,838.721ZM418.5,841.167l10,3.135a3.417,3.417,0,0,1,2.5,2.778v15.557c0,1.1-1.119,1.643-2.5,1.21l-10-3.135a3.416,3.416,0,0,1-2.5-2.777V842.377C416,841.276,417.119,840.735,418.5,841.167Z" transform="translate(-416 -832)"/>
</svg>
