<svg xmlns="http://www.w3.org/2000/svg" width="32" height="32" viewBox="0 0 32 32">
  <defs>
    <style>
      .cls-1 {
        fill: #2f2f2f;
        fill-rule: evenodd;
      }
    </style>
  </defs>
  <path id="calendar" class="cls-1" d="M374.388,384.714h-2.2a1.5,1.5,0,0,0-1.485,1.51v2.238a1.5,1.5,0,0,0,1.485,1.509h2.2a1.5,1.5,0,0,0,1.484-1.509v-2.238a1.5,1.5,0,0,0-1.484-1.51h0Zm6.954,0h-2.2a1.5,1.5,0,0,0-1.488,1.51v2.238a1.5,1.5,0,0,0,1.488,1.509h2.2a1.5,1.5,0,0,0,1.485-1.509v-2.238a1.5,1.5,0,0,0-1.485-1.51h0Zm0-6.563h-2.2a1.5,1.5,0,0,0-1.488,1.509V381.9a1.5,1.5,0,0,0,1.488,1.51h2.2a1.5,1.5,0,0,0,1.485-1.51V379.66a1.5,1.5,0,0,0-1.485-1.509h0Zm6.958,0h-2.2a1.5,1.5,0,0,0-1.486,1.509V381.9a1.5,1.5,0,0,0,1.486,1.51h2.2a1.5,1.5,0,0,0,1.485-1.51V379.66a1.5,1.5,0,0,0-1.485-1.509h0Zm0,6.563h-2.2a1.5,1.5,0,0,0-1.486,1.51v2.238a1.5,1.5,0,0,0,1.486,1.509h2.2a1.5,1.5,0,0,0,1.485-1.509v-2.238a1.5,1.5,0,0,0-1.485-1.51h0Zm5.2-17.911h-1.59a1.119,1.119,0,0,0-1.109,1.131v2.654a3.492,3.492,0,1,1-6.984,0v-2.654a1.121,1.121,0,0,0-1.112-1.131h-5.252a1.122,1.122,0,0,0-1.112,1.131v2.654a3.491,3.491,0,1,1-6.98,0v-2.654a1.121,1.121,0,0,0-1.112-1.131H366.5a2.52,2.52,0,0,0-2.5,2.54v24.116A2.52,2.52,0,0,0,366.5,396h27a2.52,2.52,0,0,0,2.5-2.541V369.343a2.52,2.52,0,0,0-2.5-2.54h0Zm-0.831,24.681a0.435,0.435,0,0,1,0,.072,1.114,1.114,0,0,1-1.051,1.055,0.273,0.273,0,0,1-.057,0,0.246,0.246,0,0,1-.054,0H368.5a0.283,0.283,0,0,1-.058,0,0.288,0.288,0,0,1-.057,0,1.12,1.12,0,0,1-1.051-1.068v-14.63a1.118,1.118,0,0,1,1.108-1.072h23.118a1.114,1.114,0,0,1,1.108,1.055,0.441,0.441,0,0,1,0,.072,0.423,0.423,0,0,1,0,.073v14.37a0.453,0.453,0,0,1,0,.073h0Zm-5.377-18.941a1.937,1.937,0,0,0,1.922-1.955h0.014V365.7a1.92,1.92,0,0,0-3.827.252h-0.014v4.884a1.934,1.934,0,0,0,1.9,1.7h0Zm-14.439,0a1.939,1.939,0,0,0,1.922-1.955h0.014V365.7a1.92,1.92,0,0,0-3.827.252H370.95v4.884a1.931,1.931,0,0,0,1.905,1.7h0Z" transform="translate(-364 -364)"/>
</svg>
