<svg xmlns="http://www.w3.org/2000/svg" width="32" height="32" viewBox="0 0 32 32">
  <defs>
    <style>
      .cls-1 {
        fill: #2f2f2f;
        fill-rule: evenodd;
      }
    </style>
  </defs>
  <path id="camera" class="cls-1" d="M385.278,746.973a5.278,5.278,0,1,1-5.277-5.4,5.34,5.34,0,0,1,5.277,5.4h0Zm8.066-14.414H373.739v-1.21A1.343,1.343,0,0,0,372.412,730h-4.23a1.342,1.342,0,0,0-1.327,1.349v1.21h-0.2a2.687,2.687,0,0,0-2.656,2.7V754.3a2.686,2.686,0,0,0,2.656,2.7h26.688A2.686,2.686,0,0,0,396,754.3V735.26a2.686,2.686,0,0,0-2.656-2.7h0Zm-19.815,3.1a1.221,1.221,0,1,1-1.194,1.221,1.208,1.208,0,0,1,1.194-1.221h0ZM380,754.6a7.626,7.626,0,1,1,7.455-7.624A7.541,7.541,0,0,1,380,754.6h0Zm12.837-16.713h-7.531a1.073,1.073,0,1,1,0-2.085h7.531a1.073,1.073,0,1,1,0,2.085h0Z" transform="translate(-364 -727.5)"/>
</svg>
