<svg xmlns="http://www.w3.org/2000/svg" width="32" height="32" viewBox="0 0 32 32">
  <defs>
    <style>
      .cls-1 {
        fill: #2f2f2f;
        fill-rule: evenodd;
      }
    </style>
  </defs>
  <path id="chart-line" class="cls-1" d="M446.5,945a1.5,1.5,0,0,1-1.5-1.5v-1.778l-5.558,5.557-2,6.241a2,2,0,0,1-.855,2.459l-12.334,6.388a2.221,2.221,0,0,1-3.035-.813,1.777,1.777,0,0,1,.65-2.428l11.509-5.983,2.1-6.557a1.974,1.974,0,0,1,.559-1.551L442.065,939H440.5a1.5,1.5,0,0,1,0-3h6a1.5,1.5,0,0,1,1.5,1.5v6A1.5,1.5,0,0,1,446.5,945Zm1.5,21.5a1.5,1.5,0,0,1-1.5,1.5H417.667A1.667,1.667,0,0,1,416,966.333a1.311,1.311,0,0,1,.084-0.416A1.451,1.451,0,0,1,416,965.5v-28a1.5,1.5,0,0,1,3,0V965h27.5A1.5,1.5,0,0,1,448,966.5Z" transform="translate(-416 -936)"/>
</svg>
