<svg xmlns="http://www.w3.org/2000/svg" width="32" height="32" viewBox="0 0 32 32">
  <defs>
    <style>
      .cls-1 {
        fill: #2f2f2f;
        fill-rule: evenodd;
      }
    </style>
  </defs>
  <path id="chart-bar" class="cls-1" d="M342.5,968H313.667A1.667,1.667,0,0,1,312,966.333a1.311,1.311,0,0,1,.084-0.416A1.451,1.451,0,0,1,312,965.5v-28a1.5,1.5,0,0,1,3,0V965h27.5A1.5,1.5,0,0,1,342.5,968Zm-2.5-5h-2a2,2,0,0,1-2-2v-8a2,2,0,0,1,2-2h2a2,2,0,0,1,2,2v8A2,2,0,0,1,340,963Zm-9,0h-2a2,2,0,0,1-2-2V942a2,2,0,0,1,2-2h2a2,2,0,0,1,2,2v19A2,2,0,0,1,331,963Zm-9,0h-2a2,2,0,0,1-2-2V947a2,2,0,0,1,2-2h2a2,2,0,0,1,2,2v14A2,2,0,0,1,322,963Z" transform="translate(-312 -936)"/>
</svg>
