<svg xmlns="http://www.w3.org/2000/svg" width="31.969" height="32" viewBox="0 0 31.969 32">
  <defs>
    <style>
      .cls-1 {
        fill: #2f2f2f;
        fill-rule: evenodd;
      }
    </style>
  </defs>
  <path id="chart-pie" class="cls-1" d="M395.983,948.916a15.418,15.418,0,0,0-13.133-12.9,1.459,1.459,0,0,0-1.636,1.48v11.71a1.3,1.3,0,0,0,1.389,1.344h11.93A1.419,1.419,0,0,0,395.983,948.916Zm-2.547,4.064H380.368a1.572,1.572,0,0,1-1.589-1.544V938.653a1.425,1.425,0,0,0-1.641-1.417,15.475,15.475,0,1,0,17.718,17.383A1.441,1.441,0,0,0,393.436,952.98Z" transform="translate(-364 -936)"/>
</svg>
