<svg xmlns="http://www.w3.org/2000/svg" width="32" height="32" viewBox="0 0 32 32">
  <defs>
    <style>
      .cls-1 {
        fill: #2f2f2f;
        fill-rule: evenodd;
      }
    </style>
  </defs>
  <path id="check" class="cls-1" d="M448,1153.49a1.739,1.739,0,0,1-.578,1.32l-14.947,14.01-2.808,2.64a2.1,2.1,0,0,1-2.808,0l-2.807-2.64-7.474-7a1.8,1.8,0,0,1,0-2.64l2.808-2.63a2.1,2.1,0,0,1,2.808,0l6.069,5.71,13.543-12.72a2.1,2.1,0,0,1,2.808,0l2.808,2.63a1.769,1.769,0,0,1,.578,1.32h0Z" transform="translate(-416 -1144.5)"/>
</svg>
