<svg xmlns="http://www.w3.org/2000/svg" width="32" height="32" viewBox="0 0 32 32">
  <defs>
    <style>
      .cls-1 {
        fill: #2f2f2f;
        fill-rule: evenodd;
      }
    </style>
  </defs>
  <path id="checkin" class="cls-1" d="M445.5,396h-27a2.52,2.52,0,0,1-2.5-2.541V369.343a2.52,2.52,0,0,1,2.5-2.54h1.753a1.121,1.121,0,0,1,1.112,1.131v2.654a3.491,3.491,0,1,0,6.98,0v-2.654a1.122,1.122,0,0,1,1.112-1.131h5.252a1.121,1.121,0,0,1,1.112,1.131v2.654a3.492,3.492,0,1,0,6.984,0v-2.654a1.119,1.119,0,0,1,1.109-1.131h1.59a2.52,2.52,0,0,1,2.5,2.54v24.116A2.52,2.52,0,0,1,445.5,396Zm-0.831-19.032a0.441,0.441,0,0,0,0-.072,1.114,1.114,0,0,0-1.108-1.055H420.441a1.118,1.118,0,0,0-1.108,1.072v14.63a1.12,1.12,0,0,0,1.051,1.068,0.288,0.288,0,0,0,.057,0,0.283,0.283,0,0,0,.058,0h23.006a0.246,0.246,0,0,0,.054,0,0.273,0.273,0,0,0,.057,0,1.114,1.114,0,0,0,1.051-1.055,0.435,0.435,0,0,0,0-.072,0.453,0.453,0,0,0,0-.073v-14.37A0.423,0.423,0,0,0,444.671,376.968Zm-12.378,11.36a1.008,1.008,0,0,1-.105.07c-0.03.036-.042,0.079-0.075,0.112a1.5,1.5,0,0,1-2.121,0l-3.536-3.535a1.5,1.5,0,1,1,2.122-2.122l2.473,2.474,5.656-5.655a1.5,1.5,0,0,1,2.121,2.121Zm7-15.785a1.934,1.934,0,0,1-1.9-1.7v-4.884H437.4a1.92,1.92,0,0,1,3.827-.252v4.885h-0.014A1.937,1.937,0,0,1,439.294,372.543Zm-14.439,0a1.931,1.931,0,0,1-1.905-1.7v-4.884h0.014a1.92,1.92,0,0,1,3.827-.252v4.885h-0.014A1.939,1.939,0,0,1,424.855,372.543Z" transform="translate(-416 -364)"/>
</svg>
