<svg xmlns="http://www.w3.org/2000/svg" width="32" height="32" viewBox="0 0 32 32">
  <defs>
    <style>
      .cls-1 {
        fill: #2f2f2f;
        fill-rule: evenodd;
      }
    </style>
  </defs>
  <path id="chrome" class="cls-1" d="M328,1102.05a5.95,5.95,0,1,1-5.951,5.95,5.948,5.948,0,0,1,5.951-5.95m14.856,0h-11a7.1,7.1,0,0,1,2.375,9.34h0l-7.3,12.57c0.351,0.03.7,0.04,1.062,0.04A16.007,16.007,0,0,0,342.856,1102.05ZM328,1115.09a7.094,7.094,0,0,1-6.67-4.68l-6.621-11.32a16,16,0,0,0,10.986,24.74l5.52-9.51A7.082,7.082,0,0,1,328,1115.09Zm-0.036-14.18h14.381a16,16,0,0,0-26.9-2.82l5.486,9.38a7.092,7.092,0,0,1,7.036-6.56" transform="translate(-312 -1092)"/>
</svg>
