<svg xmlns="http://www.w3.org/2000/svg" width="32" height="31.938" viewBox="0 0 32 31.938">
  <defs>
    <style>
      .cls-1 {
        fill: #2f2f2f;
        fill-rule: evenodd;
      }
    </style>
  </defs>
  <path id="close" class="cls-1" d="M344.009,119.967a15.351,15.351,0,0,1-1.27,6.232,16.31,16.31,0,0,1-8.529,8.515,15.25,15.25,0,0,1-6.17,1.268,15.426,15.426,0,0,1-6.242-1.268,16.31,16.31,0,0,1-8.529-8.515,15.351,15.351,0,0,1-1.27-6.232,15.17,15.17,0,0,1,1.27-6.159,16.31,16.31,0,0,1,8.529-8.515,15.41,15.41,0,0,1,6.242-1.268,15.234,15.234,0,0,1,6.17,1.268,16.31,16.31,0,0,1,8.529,8.515,15.17,15.17,0,0,1,1.27,6.159h0Zm-16.041,3.189,4.79,4.782a2.256,2.256,0,0,0,3.194-3.188l-4.79-4.783,4.79-4.855a2.256,2.256,0,0,0-3.194-3.188l-4.79,4.782-4.864-4.782a2.256,2.256,0,0,0-3.193,3.188l4.79,4.855-4.79,4.783a2.256,2.256,0,0,0,3.193,3.188Z" transform="translate(-312 -104.031)"/>
</svg>
