<svg xmlns="http://www.w3.org/2000/svg" width="31.998" height="32" viewBox="0 0 31 31.002">
  <defs>
    <style>
      .cls-1 {
        fill: #2f2f2f;
        fill-rule: evenodd;
      }
    </style>
  </defs>
  <path id="clothes" class="cls-1" d="M394.39,892.452l-5.749-5.835a2.055,2.055,0,0,0-1.628-.61c-0.057,0-.112-0.007-0.167-0.007h-3.063l-0.215.121a8.864,8.864,0,0,1-8.153,0L375.2,886h-3.063a2.082,2.082,0,0,0-1.846,1.119l-5.683,5.767a2.131,2.131,0,0,0,0,2.981l4.152,4.213a2.05,2.05,0,0,0,1.28.609v10.183a2.115,2.115,0,0,0,2.1,2.128h14.709a2.115,2.115,0,0,0,2.1-2.128V900.256a2.051,2.051,0,0,0,1.3-.61l4.152-4.214A2.131,2.131,0,0,0,394.39,892.452Z" transform="translate(-364 -883.999)"/>
</svg>
