<svg xmlns="http://www.w3.org/2000/svg" width="32" height="32" viewBox="0 0 32 32">
  <defs>
    <style>
      .cls-1 {
        fill: #2f2f2f;
        fill-rule: evenodd;
      }
    </style>
  </defs>
  <path id="cloud" class="cls-1" d="M344,540.178A5.907,5.907,0,0,1,338.011,546a6.145,6.145,0,0,1-.819-0.054H318.808a6.145,6.145,0,0,1-.819.054,5.806,5.806,0,0,1-1.638-11.423,5.937,5.937,0,0,1,5.934-5.029,6.1,6.1,0,0,1,2.886.719A8.418,8.418,0,0,1,332.544,526a8.27,8.27,0,0,1,8.384,8.15,7.915,7.915,0,0,1-.053.915A5.8,5.8,0,0,1,344,540.178Z" transform="translate(-312 -520)"/>
</svg>
