<svg xmlns="http://www.w3.org/2000/svg" width="31.36" height="31.39" viewBox="0 0 32 32.031">
  <defs>
    <style>
      .cls-1 {
        fill: #2f2f2f;
        fill-rule: evenodd;
      }
    </style>
  </defs>
  <path id="comment-empty" class="cls-1" d="M391.3,287.555a5.467,5.467,0,0,0-.333-1.474,27.506,27.506,0,0,1-.825-4.233,3.093,3.093,0,0,1,.674-2.707c0.322-.252,2.642-1.869,2.642-1.869a6.6,6.6,0,0,0,1.756-1.7h0a2.052,2.052,0,0,0,.29-0.51,4.008,4.008,0,0,0-.155-4.113h0a3.634,3.634,0,0,0-2.665-1.582c-0.106-.038-0.459-0.043-1.483-0.169a23.487,23.487,0,0,1-3.988-.463,3.542,3.542,0,0,1-2.412-1.982l-0.74-2.727a9.392,9.392,0,0,0-.993-2.327h0a4.785,4.785,0,0,1-.454-0.411,3.488,3.488,0,0,0-3.767-1.121h0a4.076,4.076,0,0,0-2.257,2.132,8.662,8.662,0,0,0-.585,1.386,26.953,26.953,0,0,1-1.644,3.83,2.664,2.664,0,0,1-2.109,1.694l-3.181-.048a7.211,7.211,0,0,0-2.337.259h0a3.177,3.177,0,0,0-.533.176,3.756,3.756,0,0,0-2.2,3.381h0a4.2,4.2,0,0,0,1.162,2.88c0.106,0.038.348,0.372,1.082,1.007a19.18,19.18,0,0,1,3.035,2.946,2.994,2.994,0,0,1,.772,2.985l-0.922,2.739a9.412,9.412,0,0,0-.458,2.416h0a5.032,5.032,0,0,0,.027.624,3.7,3.7,0,0,0,2.36,3.192h0a3.513,3.513,0,0,0,3.043-.248,7.944,7.944,0,0,0,1.213-.789,24.455,24.455,0,0,1,3.565-2.15c0.96-.389,1.778-0.707,2.654-0.144l2.517,2.02a8.8,8.8,0,0,0,2.069,1.242l0.105,0.039,0.528,0.191a3.722,3.722,0,0,0,3.66-1.377h0A3.384,3.384,0,0,0,391.3,287.555Zm-6.247-3.251h0a1.883,1.883,0,0,1-1.92.779l-0.317-.115h0a3.078,3.078,0,0,1-1.087-.64l-1.4-1.122a1.577,1.577,0,0,0-1.451.088,13.889,13.889,0,0,0-1.925,1.146,6.343,6.343,0,0,1-.606.395,1.744,1.744,0,0,1-1.593.16h0a2.053,2.053,0,0,1-1.32-1.708,0.372,0.372,0,0,0-.032-0.258h0a3.2,3.2,0,0,1,.195-1.282l0.479-1.424a1.521,1.521,0,0,0-.4-1.621c-0.348-.373-0.7-0.745-1.6-1.566a2.85,2.85,0,0,1-.486-0.668,2.563,2.563,0,0,1-.65-1.588h0a2.012,2.012,0,0,1,1.191-1.781l0.285-.143h0a9.664,9.664,0,0,1,1.24-.165l1.662-.011a1.623,1.623,0,0,0,1.144-.938c0.29-.509.437-0.948,0.948-2.115a1.1,1.1,0,0,1,.364-0.728,2.143,2.143,0,0,1,1.218-1.157h0a2.029,2.029,0,0,1,2.042.618,0.352,0.352,0,0,1,.174.186h0a3.468,3.468,0,0,1,.549,1.183l0.476,1.4a1.673,1.673,0,0,0,1.293,1.084,14.127,14.127,0,0,0,2.152.289c0.459,0.044.707,0.011,0.813,0.049a1.936,1.936,0,0,1,1.367.864h0a2.03,2.03,0,0,1,.112,2.131,0.354,0.354,0,0,1-.18.181h0a5.125,5.125,0,0,1-.9.9s-1.25.9-1.392,0.971a1.8,1.8,0,0,0-.374,1.462,10.553,10.553,0,0,0,.428,2.246,2.289,2.289,0,0,0,.2.811A4.77,4.77,0,0,1,385.056,284.3Z" transform="translate(-364 -260)"/>
</svg>
