<svg xmlns="http://www.w3.org/2000/svg" width="32" height="32" viewBox="0 0 32 32">
  <defs>
    <style>
      .cls-1 {
        fill: #2f2f2f;
        fill-rule: evenodd;
      }
    </style>
  </defs>
  <path id="comment" class="cls-1" d="M287.429,284.1a16.222,16.222,0,0,1-10.535,4.364c-0.993.831-3.975,3.532-7.751,3.532a1.323,1.323,0,0,1-1.391-.831,1.625,1.625,0,0,1,.2-1.662,4.114,4.114,0,0,0,.8-2.494,16.711,16.711,0,0,1-6.161-4.987A12.335,12.335,0,0,1,260,274.338a13.516,13.516,0,0,1,1.193-5.611,11.545,11.545,0,0,1,3.776-4.571,16.983,16.983,0,0,1,22.261,0A14.734,14.734,0,0,1,292,274.13,13.352,13.352,0,0,1,287.429,284.1ZM269,273a2,2,0,1,0,2,2A2,2,0,0,0,269,273Zm7,0a2,2,0,1,0,2,2A2,2,0,0,0,276,273Zm7,0a2,2,0,1,0,2,2A2,2,0,0,0,283,273Z" transform="translate(-260 -260)"/>
</svg>
