<svg xmlns="http://www.w3.org/2000/svg" width="32" height="32" viewBox="0 0 32 32">
  <defs>
    <style>
      .cls-1 {
        fill: #2f2f2f;
        fill-rule: evenodd;
      }
    </style>
  </defs>
  <path id="compass" class="cls-1" d="M328,864a16,16,0,1,1,16-16A16.019,16.019,0,0,1,328,864Zm9.094-21.549q-0.06,0-.12.006l-10.646,1.065a0.536,0.536,0,0,0-.079.014l-0.076.015a1.51,1.51,0,0,0-.149.044c-0.038.015-.069,0.028-0.1,0.043s-0.066.033-.1,0.051a1.13,1.13,0,0,0-.124.085c-0.017.013-.033,0.026-0.05,0.041a0.689,0.689,0,0,0-.071.06l-7.569,7.566a1.215,1.215,0,0,0-.086,1.622c0.022,0.028.044,0.056,0.068,0.082l0.017,0.019,0.011,0.01a1.231,1.231,0,0,0,.877.375,1.166,1.166,0,0,0,.118-0.006l10.647-1.054a0.507,0.507,0,0,0,.088-0.017l0.072-.014a1.2,1.2,0,0,0,.144-0.044,1.007,1.007,0,0,0,.1-0.041,1.039,1.039,0,0,0,.1-0.053,1.092,1.092,0,0,0,.124-0.084,0.627,0.627,0,0,0,.052-0.043,0.609,0.609,0,0,0,.074-0.062l7.57-7.554a1.262,1.262,0,0,0-.893-2.126h0Zm-11.006,4.362,1.621,3.421-5.6.554Zm2.2-1.039,5.606-.56-3.986,3.977Z" transform="translate(-312 -832)"/>
</svg>
