<svg xmlns="http://www.w3.org/2000/svg" width="32" height="32" viewBox="0 0 32 32">
  <defs>
    <style>
      .cls-1 {
        fill: #2f2f2f;
        fill-rule: evenodd;
      }
    </style>
  </defs>
  <path id="compress" class="cls-1" d="M445.008,599.288a4.433,4.433,0,0,1-4.777,4.7q-8.195.01-16.389,0A4.91,4.91,0,0,1,419,599.267q-0.018-11.284,0-22.57a4.575,4.575,0,0,1,4.843-4.691H436.28c0,1.314-.017,2.532.008,3.749a8.8,8.8,0,0,0,.176,1.732,3.708,3.708,0,0,0,3.8,3.047c1.484,0.03,2.968.016,4.453,0.024a1.8,1.8,0,0,1,.3.086v0.887Q445.009,590.409,445.008,599.288ZM430,588v-2h-2v-2h2v-2h-2v-2h2v-2h-2v-2h-3v2h2v2h-2v2h2v2h-2v2h2v2h-2v5h5v-5Zm-1,4h-3v-2h3v2Zm10.76-13.78c-0.853-.073-1.127-1.01-1.166-1.764-0.077-1.444-.023-2.9-0.023-4.406,2.168,0.287,6.476,4.467,6.389,6.214C443.23,578.264,441.484,578.368,439.76,578.22Z" transform="translate(-416 -572)"/>
</svg>
