<svg xmlns="http://www.w3.org/2000/svg" width="32" height="32" viewBox="0 0 32 32">
  <defs>
    <style>
      .cls-1 {
        fill: #2f2f2f;
        fill-rule: evenodd;
      }
    </style>
  </defs>
  <path id="crown" class="cls-1" d="M380.06,628a3.475,3.475,0,0,1,1.444.312,3.569,3.569,0,0,1,1.188.857,4.379,4.379,0,0,1,.8,1.262,4.083,4.083,0,0,1-.286,3.648,4,4,0,0,1-1.519,1.433,6.139,6.139,0,0,0-.331,2,6.8,6.8,0,0,0,.406,2.292,7.49,7.49,0,0,0,1.113,2.057,6.033,6.033,0,0,0,1.654,1.5,3.836,3.836,0,0,0,2.03.577,3.52,3.52,0,0,0,1.76-.468,6.18,6.18,0,0,0,1.5-1.2,7.222,7.222,0,0,0,1.142-1.652,8.08,8.08,0,0,0,.677-1.823,3.372,3.372,0,0,1-1.834-3.024,3.372,3.372,0,0,1,.24-1.278,3.187,3.187,0,0,1,.662-1.029,3.26,3.26,0,0,1,.992-0.7,2.863,2.863,0,0,1,2.406,0,3.276,3.276,0,0,1,.993.7,3.2,3.2,0,0,1,.661,1.029,3.353,3.353,0,0,1,.241,1.278,3.312,3.312,0,0,1-.5,1.792,3.264,3.264,0,0,1-1.278,1.2q-0.151,1.558-.452,3.18t-0.752,3.226a30.131,30.131,0,0,1-1.052,3.1,21.453,21.453,0,0,1-1.323,2.743,30.02,30.02,0,0,1-5.173,1.481,29.646,29.646,0,0,1-10.993,0,30.973,30.973,0,0,1-5.188-1.481,21.453,21.453,0,0,1-1.323-2.743,30.376,30.376,0,0,1-1.053-3.1q-0.45-1.6-.767-3.226a28.144,28.144,0,0,1-.436-3.18,3.063,3.063,0,0,1-1.248-1.2,3.473,3.473,0,0,1-.466-1.792,3.381,3.381,0,0,1,.887-2.307,3.143,3.143,0,0,1,.963-0.7,2.724,2.724,0,0,1,1.188-.265,2.821,2.821,0,0,1,1.2.265,3.272,3.272,0,0,1,.992.7,3.2,3.2,0,0,1,.662,1.029,3.548,3.548,0,0,1-.271,3.117,3.074,3.074,0,0,1-1.323,1.185,7.943,7.943,0,0,0,.677,1.854,7.57,7.57,0,0,0,1.142,1.668,6.024,6.024,0,0,0,1.5,1.216,3.526,3.526,0,0,0,1.76.467,3.843,3.843,0,0,0,2.03-.576,6.273,6.273,0,0,0,1.669-1.5,7.215,7.215,0,0,0,1.128-2.073,6.921,6.921,0,0,0,.406-2.306,5.559,5.559,0,0,0-.421-2.12,4.047,4.047,0,0,1-1.369-1.45,3.974,3.974,0,0,1-.526-2.01,3.921,3.921,0,0,1,.3-1.528,4.22,4.22,0,0,1,.813-1.262,3.761,3.761,0,0,1,1.188-.857A3.439,3.439,0,0,1,380.06,628h0Z" transform="translate(-364 -624.5)"/>
</svg>
