<svg xmlns="http://www.w3.org/2000/svg" width="32" height="32" viewBox="0 0 32 32">
  <defs>
    <style>
      .cls-1 {
        fill: #2f2f2f;
        fill-rule: evenodd;
      }
    </style>
  </defs>
  <path id="customer-service" class="cls-1" d="M276.032,785.237a10.2,10.2,0,0,0-9.956,10.426,10.66,10.66,0,0,0,2.8,7.253,12.558,12.558,0,0,0,2.6,1.916c0.515,0.278,1.083.561,1.678,0.816a9.59,9.59,0,0,0,2.877.444,10.439,10.439,0,0,0,0-20.855h0Zm-5.425,12.528c5.641,4.989,10.85,0,10.85,0a5.432,5.432,0,0,1-10.85,0h0ZM276.032,782a13.184,13.184,0,0,0-12.667,10.382,4.148,4.148,0,0,0,.5,8.211,3.085,3.085,0,0,0,1.1-.165,13.008,13.008,0,0,1-.9-4.764c0-6.919,5.354-12.527,11.959-12.527s11.958,5.608,11.958,12.527a12.488,12.488,0,0,1-8.139,11.87,0.94,0.94,0,0,1-.627-0.035,4.15,4.15,0,0,0-1.807.14,1.116,1.116,0,0,0-.679,1.186,0.989,0.989,0,0,0,.823,1.083c0.741,0.122,1.8.261,2.192-.57a1.344,1.344,0,0,1,.479-0.734,13.373,13.373,0,0,0,7.972-8.013s3.686-.452,3.794-4.01a4.09,4.09,0,0,0-3.3-4.189A13.186,13.186,0,0,0,276.032,782h0Z" transform="translate(-260 -780.015)"/>
</svg>
