<svg xmlns="http://www.w3.org/2000/svg" width="32" height="32" viewBox="0 0 32 32">
  <defs>
    <style>
      .cls-1 {
        fill: #2f2f2f;
        fill-rule: evenodd;
      }
    </style>
  </defs>
  <path id="del" class="cls-1" d="M446.86,109.714h-5.711v-2.288A3.421,3.421,0,0,0,437.743,104H426.287a3.432,3.432,0,0,0-3.428,3.426v2.286h-5.715a1.143,1.143,0,0,0,0,2.286h29.716a1.142,1.142,0,0,0,0-2.284h0Zm-4.57,4.57H421.717a1.15,1.15,0,0,0-.81.326,1.132,1.132,0,0,0-.334.8V132.57A3.434,3.434,0,0,0,424,136h16a3.429,3.429,0,0,0,3.425-3.43V115.43a1.142,1.142,0,0,0-1.14-1.146h0Zm-12.576,16a1.142,1.142,0,0,1-2.284,0V117.712a1.142,1.142,0,0,1,2.284,0v12.574h0Zm6.857,0a1.141,1.141,0,0,1-2.282,0V117.712a1.141,1.141,0,0,1,2.282,0v12.574h0Z" transform="translate(-416 -104)"/>
</svg>
