<svg xmlns="http://www.w3.org/2000/svg" width="32" height="32" viewBox="0 0 32 32">
  <defs>
    <style>
      .cls-1 {
        fill: #2f2f2f;
        fill-rule: evenodd;
      }
    </style>
  </defs>
  <path id="despise" class="cls-1" d="M339.662,748.989c-0.966.061-4.17-.48-5.857-0.625a28.757,28.757,0,0,0,.893,3.341c0.482,1.7,1.255,3.361,1,5.332-0.44,3.346-4.411,4.192-5.6.969-0.086-.231-1.691-3.968-1.691-3.968-1.3-2.053-1.336-2.465-4.5-4.653-2.725-1.886-3.3-2.4-3.8-2.795a1.878,1.878,0,0,1-.709-1.232v-13.58a1.394,1.394,0,0,1,.606-1.144c2.087-1.454,9.449-2.634,13.148-2.634,1.924,0,3.008-.05,4.524.767a4.986,4.986,0,0,1,1.309,1.463c1.855,1.67,1.316,3.918,1.769,4.36,2.1,2.06,1.67,4.55,1.963,5.22a12.6,12.6,0,0,1,.9,3.188C344.877,747.467,342.93,748.784,339.662,748.989Zm-25.293-1.178A2.331,2.331,0,0,1,312,745.52V731.659a2.37,2.37,0,0,1,4.738,0V745.52a2.331,2.331,0,0,1-2.369,2.291h0Z" transform="translate(-312 -728)"/>
</svg>
