<svg xmlns="http://www.w3.org/2000/svg" width="32" height="31.844" viewBox="0 0 32 31.844">
  <defs>
    <style>
      .cls-1 {
        fill: #2f2f2f;
        fill-rule: evenodd;
      }
    </style>
  </defs>
  <path id="doc-add" class="cls-1" d="M134.562,79.444a6.928,6.928,0,0,1-1.54,2.3,7,7,0,0,1-2.325,1.563,7.254,7.254,0,0,1-2.618.547,6.966,6.966,0,0,1-2.6-.452,6.344,6.344,0,0,1-2.27-1.479,6.268,6.268,0,0,1-1.456-2.248,6.959,6.959,0,0,1-.452-2.6,7.255,7.255,0,0,1,.547-2.617,7.012,7.012,0,0,1,1.563-2.325,6.918,6.918,0,0,1,2.3-1.54,7.247,7.247,0,0,1,2.617-.547,6.964,6.964,0,0,1,2.6.452,6.266,6.266,0,0,1,2.248,1.457,6.351,6.351,0,0,1,1.479,2.27,6.957,6.957,0,0,1,.451,2.6A7.234,7.234,0,0,1,134.562,79.444Zm-1.771-3.263a0.905,0.905,0,0,0-.683-0.276l-2.93.054,0.032-2.952a0.943,0.943,0,0,0-.959-0.959,1.032,1.032,0,0,0-1,.995l-0.053,2.93-2.953.076a1.032,1.032,0,0,0-1,.995,0.943,0.943,0,0,0,.959.959l2.952-.032-0.053,2.93a0.943,0.943,0,0,0,.958.959,1.03,1.03,0,0,0,1-.995l0.076-2.953,2.93-.054a1.03,1.03,0,0,0,1-.995A0.9,0.9,0,0,0,132.791,76.181ZM128.1,67.856a8.286,8.286,0,0,0-4.238,1.119,8.787,8.787,0,0,0-3.1,3.005h-8.968a1.838,1.838,0,0,0-1.372.591,1.977,1.977,0,0,0-.57,1.423,1.923,1.923,0,0,0,.57,1.407,1.863,1.863,0,0,0,1.372.575h7.612a3.71,3.71,0,0,0-.031.448V76.9a9.2,9.2,0,0,0,.4,2.733,8.865,8.865,0,0,0,1.14,2.382h-10.94a2.853,2.853,0,0,1-1.279-.352,5.472,5.472,0,0,1-2.3-2.238,3.166,3.166,0,0,1-.4-1.535V56.124a3.644,3.644,0,0,1,.308-1.407,4.987,4.987,0,0,1,1.973-2.318,2.54,2.54,0,0,1,1.356-.4h11.8v4a5.186,5.186,0,0,0,.185,1.311,4.4,4.4,0,0,0,.57,1.295,3.36,3.36,0,0,0,1,.991,2.66,2.66,0,0,0,1.479.4h4.5V67.92c-0.185-.021-0.369-0.037-0.554-0.048S128.261,67.856,128.1,67.856Zm-3.375-3.293a1.86,1.86,0,0,0-1.371-.575H111.794a1.863,1.863,0,0,0-1.372.575,1.923,1.923,0,0,0-.57,1.407,1.977,1.977,0,0,0,.57,1.423,1.838,1.838,0,0,0,1.372.591h11.557a1.836,1.836,0,0,0,1.371-.591,1.977,1.977,0,0,0,.57-1.423A1.923,1.923,0,0,0,124.722,64.563Zm-0.647-6.857a2.116,2.116,0,0,1-.385-0.559,3.069,3.069,0,0,1-.231-0.655,2.55,2.55,0,0,1-.077-0.559V52h0.061a1.742,1.742,0,0,1,1.125.368,10.468,10.468,0,0,1,.863.671q0.508,0.432,1.279,1.135,0.833,0.767,1.325,1.295a7.588,7.588,0,0,1,.74.9,2.464,2.464,0,0,1,.323.623,1.559,1.559,0,0,1,.077.447v0.512h-4.561A0.727,0.727,0,0,1,124.075,57.706Z" transform="translate(-104.547 -52)"/>
</svg>
