<svg xmlns="http://www.w3.org/2000/svg" width="32" height="32" viewBox="0 0 32 32">
  <defs>
    <style>
      .cls-1 {
        fill: #2f2f2f;
        fill-rule: evenodd;
      }
    </style>
  </defs>
  <path id="doc-del" class="cls-1" d="M175.614,57.946a0.727,0.727,0,0,1-.539-0.24,2.116,2.116,0,0,1-.385-0.559,3.069,3.069,0,0,1-.231-0.655,2.55,2.55,0,0,1-.077-0.559V52h0.061a1.742,1.742,0,0,1,1.125.368,10.468,10.468,0,0,1,.863.671q0.508,0.432,1.279,1.135,0.832,0.767,1.325,1.295a7.588,7.588,0,0,1,.74.9,2.464,2.464,0,0,1,.323.623,1.559,1.559,0,0,1,.077.447v0.512h-4.561ZM179.189,69.9a6.341,6.341,0,0,1,2.651.559A6.979,6.979,0,0,1,184,71.98a7.265,7.265,0,0,1,1.464,2.238A6.93,6.93,0,0,1,186,76.935a7.011,7.011,0,0,1-.539,2.749A7.265,7.265,0,0,1,184,81.922a6.983,6.983,0,0,1-2.157,1.519,6.341,6.341,0,0,1-2.651.559,6.261,6.261,0,0,1-2.619-.559,6.975,6.975,0,0,1-2.158-1.519,7.265,7.265,0,0,1-1.464-2.238,7.011,7.011,0,0,1-.539-2.749,6.93,6.93,0,0,1,.539-2.717,7.265,7.265,0,0,1,1.464-2.238,6.972,6.972,0,0,1,2.158-1.518,6.261,6.261,0,0,1,2.619-.559h0Zm1.356,7.065,2.034-2.11a1.029,1.029,0,0,0,0-1.407,0.943,0.943,0,0,0-1.356,0l-2.034,2.11-2.065-2.11a0.943,0.943,0,0,0-1.356,0,1.031,1.031,0,0,0,0,1.407l2.034,2.11-2.034,2.142a1.031,1.031,0,0,0,0,1.407,0.943,0.943,0,0,0,1.356,0l2.065-2.11,2.034,2.11a0.943,0.943,0,0,0,1.356,0,1.029,1.029,0,0,0,0-1.407Zm-10.139-.991a3.71,3.71,0,0,0-.031.448V76.9a9.2,9.2,0,0,0,.4,2.733,8.865,8.865,0,0,0,1.14,2.382h-10.94a2.853,2.853,0,0,1-1.279-.352,5.472,5.472,0,0,1-2.3-2.238,3.166,3.166,0,0,1-.4-1.535V56.124a3.644,3.644,0,0,1,.308-1.407,4.987,4.987,0,0,1,1.973-2.318,2.54,2.54,0,0,1,1.356-.4h11.8v4a5.186,5.186,0,0,0,.185,1.311,4.4,4.4,0,0,0,.57,1.295,3.36,3.36,0,0,0,1,.991,2.66,2.66,0,0,0,1.479.4h4.5V67.92c-0.185-.021-0.369-0.037-0.554-0.048s-0.36-.016-0.524-0.016a8.286,8.286,0,0,0-4.238,1.119,8.787,8.787,0,0,0-3.1,3.005h-8.968a1.84,1.84,0,0,0-1.372.591,1.977,1.977,0,0,0-.57,1.423,1.923,1.923,0,0,0,.57,1.407,1.864,1.864,0,0,0,1.372.575h7.612Zm-7.612-11.988a1.864,1.864,0,0,0-1.372.575,1.923,1.923,0,0,0-.57,1.407,1.977,1.977,0,0,0,.57,1.423,1.84,1.84,0,0,0,1.372.591h11.557a1.836,1.836,0,0,0,1.371-.591,1.977,1.977,0,0,0,.57-1.423,1.923,1.923,0,0,0-.57-1.407,1.86,1.86,0,0,0-1.371-.575H162.794Z" transform="translate(-155.5 -52)"/>
</svg>
