<svg xmlns="http://www.w3.org/2000/svg" width="32" height="32" viewBox="0 0 32 32">
  <defs>
    <style>
      .cls-1 {
        fill: #2f2f2f;
        fill-rule: evenodd;
      }
    </style>
  </defs>
  <path id="doc" class="cls-1" d="M81.008,79.288a4.434,4.434,0,0,1-4.777,4.7q-8.194.01-16.388,0A4.91,4.91,0,0,1,55,79.267Q54.982,67.982,55,56.7a4.576,4.576,0,0,1,4.843-4.692H72.28c0,1.314-.018,2.531.008,3.748a8.784,8.784,0,0,0,.176,1.732,3.708,3.708,0,0,0,3.8,3.047c1.484,0.03,2.968.016,4.453,0.024a1.717,1.717,0,0,1,.3.086V61.53Q81.009,70.409,81.008,79.288Zm-19.3-1.706q6.271,0.019,12.543,0a2.174,2.174,0,0,0,2.422-2.2,2.145,2.145,0,0,0-2.433-2.088c-2.105-.01-4.211,0-6.316,0-2.076,0-4.151-.008-6.227,0A2.16,2.16,0,1,0,61.713,77.582Zm12.5-12.845q-6.226-.01-12.453,0a2.187,2.187,0,0,0-2.48,2.154c-0.012,1.32.912,2.14,2.462,2.149,2.075,0.012,4.151,0,6.227,0s4.151,0.008,6.226,0c1.537-.008,2.493-0.84,2.487-2.131A2.216,2.216,0,0,0,74.212,64.737ZM75.76,58.22c-0.853-.073-1.126-1.01-1.166-1.764-0.076-1.444-.022-2.9-0.022-4.407,2.167,0.288,6.476,4.467,6.388,6.215C79.23,58.264,77.484,58.368,75.76,58.22Z" transform="translate(-52 -52)"/>
</svg>
