<svg xmlns="http://www.w3.org/2000/svg" width="32" height="32" viewBox="0 0 32 32">
  <defs>
    <style>
      .cls-1 {
        fill: #2f2f2f;
        fill-rule: evenodd;
      }
    </style>
  </defs>
  <path id="dollar" class="cls-1" d="M328,988a16,16,0,1,1-16,16A16,16,0,0,1,328,988Zm1.7,9.951a3.682,3.682,0,0,0-1.856-.476,3,3,0,0,0-2.011.64,1.958,1.958,0,0,0-.753,1.544,1.558,1.558,0,0,0,.623,1.241,8.443,8.443,0,0,0,3.063,1.08,13.652,13.652,0,0,1,3.717,1.29,4.866,4.866,0,0,1,1.892,1.91,5.079,5.079,0,0,1,.629,2.42,5.019,5.019,0,0,1-.809,2.64,5.268,5.268,0,0,1-2.4,2.04,7.837,7.837,0,0,1-1.789.54V1014a1,1,0,0,1-1,1h-1a1,1,0,0,1-1-1v-1.07a8.108,8.108,0,0,1-2.265-.53,7.368,7.368,0,0,1-2.435-1.6,8.529,8.529,0,0,1-1.307-1.8l3.349-1.19a6.177,6.177,0,0,0,1.862,1.84,4.265,4.265,0,0,0,2.16.52,3.607,3.607,0,0,0,2.329-.67,2,2,0,0,0,.834-1.59,1.849,1.849,0,0,0-.66-1.41,7.66,7.66,0,0,0-3-1.18,12.022,12.022,0,0,1-4.545-1.86,4.236,4.236,0,0,1-1.705-3.42,4.52,4.52,0,0,1,1.705-3.612A6.025,6.025,0,0,1,326,995.214V994.5a1.5,1.5,0,0,1,3,0v0.577a7.755,7.755,0,0,1,2.023.435,7.527,7.527,0,0,1,2.248,1.318,7.113,7.113,0,0,1,1.195,1.46l-3.138,1.166A5.689,5.689,0,0,0,329.7,997.951Z" transform="translate(-312 -988)"/>
</svg>
