<svg xmlns="http://www.w3.org/2000/svg" width="32" height="32" viewBox="0 0 32 32">
  <defs>
    <style>
      .cls-1 {
        fill: #2f2f2f;
        fill-rule: evenodd;
      }
    </style>
  </defs>
  <path id="double-angle-up" class="cls-1" d="M528.205,126.605l6.6-6.166a2.162,2.162,0,0,1,.429-0.551,1.487,1.487,0,0,1,1.866-.379l0.438,0.409,0.026,0.021,0.022,0.024,7.2,6.722a1.266,1.266,0,0,1-.4,1.741,1.488,1.488,0,0,1-1.866.379L536.4,123.1l-5.975,5.583a1.454,1.454,0,0,1-1.827-.371A1.243,1.243,0,0,1,528.205,126.605Zm0-7.331,6.6-6.166a2.179,2.179,0,0,1,.429-0.551,1.486,1.486,0,0,1,1.866-.378l0.438,0.408a0.265,0.265,0,0,0,.026.021c0.008,0.008.014,0.017,0.022,0.024l7.2,6.722a1.266,1.266,0,0,1-.4,1.741,1.487,1.487,0,0,1-1.866.379l-6.115-5.7-5.975,5.584a1.455,1.455,0,0,1-1.827-.371A1.244,1.244,0,0,1,528.205,119.274Z" transform="translate(-520.5 -104.5)"/>
</svg>
