<svg xmlns="http://www.w3.org/2000/svg" width="32" height="32" viewBox="0 0 32 32">
  <defs>
    <style>
      .cls-1 {
        fill: #2f2f2f;
        fill-rule: evenodd;
      }
    </style>
  </defs>
  <path id="double-angle-down" class="cls-1" d="M580.205,114.4l6.6,6.166a2.179,2.179,0,0,0,.429.551,1.487,1.487,0,0,0,1.866.379l0.438-.409,0.026-.021,0.022-.024,7.206-6.722a1.267,1.267,0,0,0-.406-1.741,1.488,1.488,0,0,0-1.866-.379L588.4,117.9l-5.975-5.583a1.454,1.454,0,0,0-1.827.371A1.243,1.243,0,0,0,580.205,114.4Zm0,7.331,6.6,6.166a2.179,2.179,0,0,0,.429.551,1.486,1.486,0,0,0,1.866.378l0.438-.408a0.265,0.265,0,0,1,.026-0.021c0.008-.008.014-0.017,0.022-0.024l7.206-6.722a1.267,1.267,0,0,0-.406-1.741,1.487,1.487,0,0,0-1.866-.379l-6.115,5.7-5.975-5.584a1.455,1.455,0,0,0-1.827.371A1.244,1.244,0,0,0,580.205,121.726Z" transform="translate(-572.5 -104.5)"/>
</svg>
