<svg xmlns="http://www.w3.org/2000/svg" width="32" height="32" viewBox="0 0 32 32">
  <defs>
    <style>
      .cls-1 {
        fill: #2f2f2f;
        fill-rule: evenodd;
      }
    </style>
  </defs>
  <path id="double-angle-left" class="cls-1" d="M646.605,112.205l-6.166,6.6a2.179,2.179,0,0,0-.551.429,1.487,1.487,0,0,0-.379,1.866l0.409,0.438,0.021,0.026,0.024,0.022,6.722,7.2a1.266,1.266,0,0,0,1.741-.405,1.488,1.488,0,0,0,.379-1.866l-5.7-6.115,5.583-5.975a1.454,1.454,0,0,0-.371-1.827A1.243,1.243,0,0,0,646.605,112.205Zm-7.331,0-6.166,6.6a2.179,2.179,0,0,0-.551.429,1.486,1.486,0,0,0-.378,1.866l0.408,0.438a0.265,0.265,0,0,1,.021.026c0.008,0.008.017,0.014,0.024,0.022l6.722,7.2a1.266,1.266,0,0,0,1.741-.405,1.487,1.487,0,0,0,.379-1.866l-5.705-6.115,5.584-5.975a1.455,1.455,0,0,0-.371-1.827A1.244,1.244,0,0,0,639.274,112.205Z" transform="translate(-624.5 -104.5)"/>
</svg>
