<svg xmlns="http://www.w3.org/2000/svg" width="32" height="32" viewBox="0 0 32 32">
  <defs>
    <style>
      .cls-1 {
        fill: #2f2f2f;
        fill-rule: evenodd;
      }
    </style>
  </defs>
  <path id="double-angle-right" class="cls-1" d="M686.39,112.205l6.156,6.6a2.193,2.193,0,0,1,.55.429,1.488,1.488,0,0,1,.377,1.866l-0.407.438c-0.008.008-.014,0.017-0.022,0.026l-0.024.022-6.709,7.2a1.262,1.262,0,0,1-1.738-.405,1.49,1.49,0,0,1-.378-1.866l5.694-6.115-5.573-5.975a1.457,1.457,0,0,1,.37-1.827A1.239,1.239,0,0,1,686.39,112.205Zm7.318,0,6.155,6.6a2.175,2.175,0,0,1,.55.429,1.49,1.49,0,0,1,.378,1.866l-0.408.438c-0.008.008-.014,0.017-0.022,0.026s-0.016.014-.023,0.022l-6.71,7.2a1.262,1.262,0,0,1-1.738-.405,1.49,1.49,0,0,1-.378-1.866l5.694-6.115-5.573-5.975A1.457,1.457,0,0,1,692,112.6,1.239,1.239,0,0,1,693.708,112.205Z" transform="translate(-676.485 -104.5)"/>
</svg>
