<svg xmlns="http://www.w3.org/2000/svg" width="32" height="32" viewBox="0 0 32 32">
  <defs>
    <style>
      .cls-1 {
        fill: #2f2f2f;
        fill-rule: evenodd;
      }
    </style>
  </defs>
  <path id="download" class="cls-1" d="M448,535.178A5.907,5.907,0,0,1,442.011,541a6.145,6.145,0,0,1-.819-0.054h-4.317A3.937,3.937,0,0,0,437,540v-0.556A4.444,4.444,0,0,0,432.556,535,3.556,3.556,0,0,0,429,538.556V540a3.937,3.937,0,0,0,.125.946h-6.317a6.145,6.145,0,0,1-.819.054,5.806,5.806,0,0,1-1.638-11.423,5.937,5.937,0,0,1,5.934-5.029,6.1,6.1,0,0,1,2.886.719A8.418,8.418,0,0,1,436.544,521a8.27,8.27,0,0,1,8.384,8.15,7.915,7.915,0,0,1-.053.915A5.8,5.8,0,0,1,448,535.178ZM429.582,542.9l1.5,1.565v-5.423c0-.006,0-0.011,0-0.017s0-.011,0-0.016v-0.17h0.008a1.85,1.85,0,0,1,3.7,0h0.028v5.223l1.639-1.716a1.447,1.447,0,0,1,2.113,0,1.618,1.618,0,0,1,0,2.214l-4.755,4.982a1.447,1.447,0,0,1-2.114,0l-4.227-4.428a1.618,1.618,0,0,1,0-2.214A1.445,1.445,0,0,1,429.582,542.9Z" transform="translate(-416 -519.5)"/>
</svg>
