<svg xmlns="http://www.w3.org/2000/svg" width="32" height="32" viewBox="0 0 32 32">
  <defs>
    <style>
      .cls-1 {
        fill: #2f2f2f;
        fill-rule: evenodd;
      }
    </style>
  </defs>
  <path id="edit" class="cls-1" d="M443,76H421a5,5,0,0,1-5-5V56a5,5,0,0,1,5-5h7l-4,4h-1a3,3,0,0,0-3,3V69a3,3,0,0,0,3,3h18a3,3,0,0,0,3-3V60.978L448,57V71A5,5,0,0,1,443,76Zm-9.716-9.318a7.263,7.263,0,0,1-2.477,1.272L426.414,68A2.367,2.367,0,0,1,424,65.608l0.052-4.838a2.441,2.441,0,0,1,.52-1.463,2.507,2.507,0,0,1,.517-0.747l11.439-11.336,8.194,8.121ZM445.706,54.37l-8.194-8.121,1.532-1.52a2.457,2.457,0,0,1,3.452-.036l4.78,4.737a2.4,2.4,0,0,1-.037,3.421Z" transform="translate(-416 -44)"/>
</svg>
