<svg xmlns="http://www.w3.org/2000/svg" width="32" height="32" viewBox="0 0 32 32">
  <defs>
    <style>
      .cls-1 {
        fill: #2f2f2f;
        fill-rule: evenodd;
      }
    </style>
  </defs>
  <path id="exit" class="cls-1" d="M338.669,1176H325.342a2.665,2.665,0,1,1,0-5.33h10.683a2.66,2.66,0,0,0,2.644-2.67v-16h0v-0.02a2.66,2.66,0,0,0-2.665-2.65H325.342a2.665,2.665,0,1,1,0-5.33h13.327a5.333,5.333,0,0,1,5.331,5.33v21.34A5.333,5.333,0,0,1,338.669,1176Zm-13.532-22.67a1.32,1.32,0,0,1,.878-1.25,1.106,1.106,0,0,1,.435-0.08,1.312,1.312,0,0,1,1.025.5l5.253,6.67a1.34,1.34,0,0,1,0,1.66l-5.253,6.67a1.312,1.312,0,0,1-1.025.5,1.106,1.106,0,0,1-.435-0.08,1.32,1.32,0,0,1-.878-1.25v-4h-10.5a2.67,2.67,0,0,1,0-5.34h10.5v-4Z" transform="translate(-312 -1144)"/>
</svg>
