<svg xmlns="http://www.w3.org/2000/svg" width="32" height="32" viewBox="0 0 32 32">
  <defs>
    <style>
      .cls-1 {
        fill: #2f2f2f;
        fill-rule: evenodd;
      }
    </style>
  </defs>
  <path id="exchange" class="cls-1" d="M342.04,595.011l-7.177,7.282a2.365,2.365,0,0,1-3.379,0l-0.157-.159a2.449,2.449,0,0,1,0-3.428l3.581-3.633H314.5a2.5,2.5,0,0,1-2.5-2.5V592.5a2.5,2.5,0,0,1,2.5-2.5h27a2.5,2.5,0,0,1,2.5,2.5v0.073A2.5,2.5,0,0,1,342.04,595.011ZM341.5,586h-27a2.5,2.5,0,0,1-.541-4.938l7.178-7.178a2.389,2.389,0,0,1,3.379,0l0.157,0.157a2.389,2.389,0,0,1,0,3.379L321.092,581H341.5A2.5,2.5,0,0,1,341.5,586Z" transform="translate(-312 -572.11)"/>
</svg>
