<svg xmlns="http://www.w3.org/2000/svg" width="32" height="32" viewBox="0 0 32 32">
  <defs>
    <style>
      .cls-1 {
        fill: #2f2f2f;
        fill-rule: evenodd;
      }
    </style>
  </defs>
  <path id="enter" class="cls-1" d="M395.693,1159.17l-5.331-6.67a1.34,1.34,0,0,0-1.041-.5,1.138,1.138,0,0,0-.441.08,1.321,1.321,0,0,0-.891,1.25v4H377.327a2.67,2.67,0,0,0,0,5.34h10.662v4a1.321,1.321,0,0,0,.891,1.25,1.138,1.138,0,0,0,.441.08,1.34,1.34,0,0,0,1.041-.5l5.331-6.67A1.327,1.327,0,0,0,395.693,1159.17Zm-13.035,11.5H371.975a2.66,2.66,0,0,1-2.644-2.67v-16h0v-0.02a2.66,2.66,0,0,1,2.665-2.65h10.662a2.665,2.665,0,1,0,0-5.33H369.331a5.333,5.333,0,0,0-5.331,5.33v21.34a5.333,5.333,0,0,0,5.331,5.33h13.327A2.665,2.665,0,1,0,382.658,1170.67Z" transform="translate(-364 -1144)"/>
</svg>
