<svg xmlns="http://www.w3.org/2000/svg" width="32" height="32" viewBox="0 0 32 32">
  <defs>
    <style>
      .cls-1 {
        fill: #2f2f2f;
        fill-rule: evenodd;
      }
    </style>
  </defs>
  <path id="eye-close" class="cls-1" d="M445.5,483s-0.312.185-.855,0.471l1.152,2a1.5,1.5,0,1,1-2.6,1.5l-1.279-2.215a31.982,31.982,0,0,1-4.892,1.623l0.444,1.659a1.5,1.5,0,1,1-2.9.776l-0.516-1.925a18.536,18.536,0,0,1-1.943.115,19.358,19.358,0,0,1-3.124-.275l-0.561,2.095a1.5,1.5,0,0,1-2.9-.776l0.529-1.973a33.908,33.908,0,0,1-5.006-1.893l-1.29,2.118a1.527,1.527,0,0,1-2.024.515,1.367,1.367,0,0,1-.542-1.919l1.176-1.932A2.77,2.77,0,0,1,416,480.222,2.222,2.222,0,0,1,418.222,478s6.966,4,13.857,4c6.746,0,13.421-4,13.421-4A2.5,2.5,0,0,1,445.5,483Z" transform="translate(-416 -467.969)"/>
</svg>
