<svg xmlns="http://www.w3.org/2000/svg" width="32" height="32" viewBox="0 0 32 32">
  <defs>
    <style>
      .cls-1 {
        fill: #2f2f2f;
        fill-rule: evenodd;
      }
    </style>
  </defs>
  <path id="flag" class="cls-1" d="M441.221,1113c-4.038,0-8.152-4-12.226-4a13.814,13.814,0,0,0-7,2v-17a13.741,13.741,0,0,1,6.975-2c4.089,0,8.23,4,12.279,4a12.924,12.924,0,0,0,6.746-2v17A13.042,13.042,0,0,1,441.221,1113ZM418,1124a2,2,0,0,1-2-2v-28a2,2,0,0,1,4,0v28A2,2,0,0,1,418,1124Z" transform="translate(-416 -1092)"/>
</svg>
