<svg xmlns="http://www.w3.org/2000/svg" width="32" height="32" viewBox="0 0 32 32">
  <defs>
    <style>
      .cls-1 {
        fill: #2f2f2f;
        fill-rule: evenodd;
      }
    </style>
  </defs>
  <path id="folder-add" class="cls-1" d="M135.894,118.674q-0.074.3-.294,1.5t-0.516,2.747c-0.026.138-.061,0.287-0.088,0.426a8.993,8.993,0,0,0-15.053,9.65H108.712a4.207,4.207,0,0,1-1.6-.341,5.374,5.374,0,0,1-1.529-.966,4.973,4.973,0,0,1-1.141-1.515,4.41,4.41,0,0,1-.442-1.989v-16.25a5.107,5.107,0,0,1,1.215-3.618,4.448,4.448,0,0,1,3.426-1.307H126.76a4.811,4.811,0,0,1,1.676.322,5.512,5.512,0,0,1,1.565.891,4.824,4.824,0,0,1,1.142,1.325,3.175,3.175,0,0,1,.442,1.629v0.417H129.67q-1.474,0-3.444-.019t-4.2-.019q-2.229,0-4.162-.019t-3.333-.019h-1.695a1.854,1.854,0,0,0-1.491.625,4.359,4.359,0,0,0-.829,1.648q-0.3,1.1-.663,2.329t-0.663,2.292q-0.369,1.249-.737,2.424a2.183,2.183,0,0,0-.073.493,1.488,1.488,0,0,0,.423,1.079,1.406,1.406,0,0,0,1.05.436,1.633,1.633,0,0,0,1.547-1.477l1.952-7.349q4.788,0.038,8.766.038h10.313a4.8,4.8,0,0,1,1.4.379,3.631,3.631,0,0,1,1.215.852,3.488,3.488,0,0,1,.774,1.383A4.479,4.479,0,0,1,135.894,118.674Zm-12.482,5.462a6.925,6.925,0,0,1,2.3-1.54,7.262,7.262,0,0,1,2.618-.547,6.958,6.958,0,0,1,2.6.452,6.269,6.269,0,0,1,2.248,1.456,6.357,6.357,0,0,1,1.479,2.27,6.957,6.957,0,0,1,.451,2.6,7.237,7.237,0,0,1-.547,2.618,7.2,7.2,0,0,1-3.865,3.865,7.237,7.237,0,0,1-2.618.547,6.957,6.957,0,0,1-2.6-.451,6.357,6.357,0,0,1-2.27-1.479,6.256,6.256,0,0,1-1.456-2.248,6.958,6.958,0,0,1-.452-2.6,7.253,7.253,0,0,1,.547-2.617A7.013,7.013,0,0,1,123.412,124.136Zm0.119,5.59a0.906,0.906,0,0,0,.683.276l2.952-.032-0.053,2.93a0.941,0.941,0,0,0,.958.959,1.03,1.03,0,0,0,1-.994l0.076-2.953,2.93-.054a1.03,1.03,0,0,0,1-.994,0.943,0.943,0,0,0-.959-0.959l-2.93.053,0.032-2.952a0.943,0.943,0,0,0-.959-0.958,1.032,1.032,0,0,0-1,.994l-0.053,2.93-2.953.077a1.03,1.03,0,0,0-1,.994A0.9,0.9,0,0,0,123.531,129.726Z" transform="translate(-104 -105.422)"/>
</svg>
