<svg xmlns="http://www.w3.org/2000/svg" width="32" height="32" viewBox="0 0 32 32">
  <defs>
    <style>
      .cls-1 {
        fill: #2f2f2f;
        fill-rule: evenodd;
      }
    </style>
  </defs>
  <path id="folder" class="cls-1" d="M80.432,114.053a4.8,4.8,0,0,1,1.4.379,3.624,3.624,0,0,1,1.215.852,3.487,3.487,0,0,1,.773,1.383,4.469,4.469,0,0,1,.074,2.007q-0.074.3-.295,1.5t-0.516,2.747q-0.295,1.552-.663,3.2t-0.7,2.822a7.974,7.974,0,0,1-.534,1.4,5.252,5.252,0,0,1-.9,1.307,4.561,4.561,0,0,1-1.326.966,4.155,4.155,0,0,1-1.841.379H56.712a4.208,4.208,0,0,1-1.6-.341,5.357,5.357,0,0,1-1.528-.966,4.976,4.976,0,0,1-1.142-1.515A4.414,4.414,0,0,1,52,128.182v-16.25a5.106,5.106,0,0,1,1.215-3.618,4.448,4.448,0,0,1,3.425-1.307H74.76a4.81,4.81,0,0,1,1.676.322A5.522,5.522,0,0,1,78,108.22a4.823,4.823,0,0,1,1.142,1.325,3.178,3.178,0,0,1,.442,1.629v0.417H77.67q-1.473,0-3.444-.019t-4.2-.019q-2.228,0-4.162-.019t-3.333-.019H60.837a1.855,1.855,0,0,0-1.492.625,4.363,4.363,0,0,0-.829,1.648q-0.295,1.1-.663,2.329t-0.663,2.292q-0.368,1.249-.736,2.424a2.179,2.179,0,0,0-.074.493,1.486,1.486,0,0,0,.424,1.079,1.4,1.4,0,0,0,1.05.436,1.633,1.633,0,0,0,1.547-1.477l1.952-7.349q4.788,0.038,8.766.038H80.432Z" transform="translate(-52 -104)"/>
</svg>
