<svg xmlns="http://www.w3.org/2000/svg" width="32" height="32" viewBox="0 0 32 32">
  <defs>
    <style>
      .cls-1 {
        fill: #2f2f2f;
        fill-rule: evenodd;
      }
    </style>
  </defs>
  <path id="folder-del" class="cls-1" d="M187.894,118.674q-0.074.3-.294,1.5t-0.516,2.747c-0.026.138-.061,0.287-0.088,0.426a8.993,8.993,0,0,0-15.053,9.65H160.712a4.207,4.207,0,0,1-1.6-.341,5.374,5.374,0,0,1-1.529-.966,4.973,4.973,0,0,1-1.141-1.515,4.41,4.41,0,0,1-.442-1.989v-16.25a5.107,5.107,0,0,1,1.215-3.618,4.448,4.448,0,0,1,3.426-1.307H178.76a4.811,4.811,0,0,1,1.676.322,5.512,5.512,0,0,1,1.565.891,4.824,4.824,0,0,1,1.142,1.325,3.175,3.175,0,0,1,.442,1.629v0.417H181.67q-1.474,0-3.444-.019t-4.2-.019q-2.229,0-4.162-.019t-3.333-.019h-1.7a1.854,1.854,0,0,0-1.491.625,4.359,4.359,0,0,0-.829,1.648q-0.3,1.1-.663,2.329t-0.663,2.292q-0.369,1.249-.737,2.424a2.183,2.183,0,0,0-.073.493,1.488,1.488,0,0,0,.423,1.079,1.406,1.406,0,0,0,1.05.436,1.633,1.633,0,0,0,1.547-1.477l1.952-7.349q4.788,0.038,8.766.038h10.313a4.8,4.8,0,0,1,1.4.379,3.631,3.631,0,0,1,1.215.852,3.488,3.488,0,0,1,.774,1.383A4.479,4.479,0,0,1,187.894,118.674Zm-12.66,5.488a7.235,7.235,0,0,1,2.238-1.463,7.192,7.192,0,0,1,5.466,0,7.255,7.255,0,0,1,2.238,1.464,6.965,6.965,0,0,1,1.519,2.158,6.261,6.261,0,0,1,.559,2.619,6.34,6.34,0,0,1-.559,2.651,6.973,6.973,0,0,1-1.519,2.157,7.255,7.255,0,0,1-2.238,1.464,6.927,6.927,0,0,1-2.717.539,7.009,7.009,0,0,1-2.749-.539,7.255,7.255,0,0,1-2.238-1.464,6.986,6.986,0,0,1-1.518-2.157,6.341,6.341,0,0,1-.56-2.651,6.262,6.262,0,0,1,.56-2.619A6.979,6.979,0,0,1,175.234,124.162Zm1.407,6.811a0.942,0.942,0,0,0,0,1.356,1.028,1.028,0,0,0,1.406,0l2.142-2.034,2.11,2.034a1.029,1.029,0,0,0,1.407,0,0.944,0.944,0,0,0,0-1.356l-2.11-2.034,2.11-2.065a0.944,0.944,0,0,0,0-1.356,1.032,1.032,0,0,0-1.407,0l-2.11,2.034-2.142-2.034a1.031,1.031,0,0,0-1.406,0,0.942,0.942,0,0,0,0,1.356l2.11,2.065Z" transform="translate(-156 -105.375)"/>
</svg>
