<svg xmlns="http://www.w3.org/2000/svg" width="32" height="32" viewBox="0 0 32 32">
  <defs>
    <style>
      .cls-1 {
        fill: #2f2f2f;
        fill-rule: evenodd;
      }
    </style>
  </defs>
  <path id="globe" class="cls-1" d="M328,884a15.645,15.645,0,0,1,8.031,2.146,15.911,15.911,0,0,1,5.823,5.823,16.1,16.1,0,0,1,0,16.062,15.911,15.911,0,0,1-5.823,5.823,16.1,16.1,0,0,1-16.062,0,15.911,15.911,0,0,1-5.823-5.823,16.1,16.1,0,0,1,0-16.062,15.911,15.911,0,0,1,5.823-5.823A15.645,15.645,0,0,1,328,884Zm5.708,10.854a1.257,1.257,0,0,0-.2.2,0.539,0.539,0,0,1-.281.2,0.154,0.154,0,0,0,.094-0.1c0.035-.07.069-0.146,0.1-0.229a0.635,0.635,0,0,1,.073-0.146,1.505,1.505,0,0,1,.458-0.313,5.333,5.333,0,0,1,1.084-.25,1.016,1.016,0,0,1,1.062.229,0.4,0.4,0,0,1,.2-0.27,1.427,1.427,0,0,1,.3-0.25,1.129,1.129,0,0,1,.313-0.094,0.47,0.47,0,0,0,.312-0.156l0.042-.459a0.371,0.371,0,0,1-.365-0.145,0.89,0.89,0,0,1-.135-0.438,0.4,0.4,0,0,1-.125.167,0.143,0.143,0,0,0-.094-0.167,0.5,0.5,0,0,0-.24.021,0.325,0.325,0,0,1-.187.021,0.822,0.822,0,0,1-.313-0.157,0.683,0.683,0,0,1-.166-0.343c-0.042-.167-0.07-0.271-0.083-0.313a0.568,0.568,0,0,0-.2-0.219,0.544,0.544,0,0,1-.2-0.218c-0.014-.028-0.032-0.066-0.052-0.115s-0.042-.094-0.063-0.135a0.461,0.461,0,0,0-.083-0.115,0.159,0.159,0,0,0-.115-0.052,0.222,0.222,0,0,0-.146.1c-0.055.07-.107,0.139-0.156,0.208a0.275,0.275,0,0,1-.094.105,0.169,0.169,0,0,0-.125-0.032,0.639,0.639,0,0,0-.093.021,0.354,0.354,0,0,0-.094.063,0.682,0.682,0,0,1-.1.073,0.5,0.5,0,0,1-.177.062,1.3,1.3,0,0,0-.177.042q0.312-.1-0.021-0.229a0.654,0.654,0,0,0-.334-0.063,0.218,0.218,0,0,0,.157-0.25,0.5,0.5,0,0,0-.178-0.291h0.1a0.354,0.354,0,0,0-.177-0.178,2.707,2.707,0,0,0-.365-0.177,1.731,1.731,0,0,1-.271-0.125,2.333,2.333,0,0,0-.708-0.2,0.7,0.7,0,0,0-.688.105,0.308,0.308,0,0,0-.093.218,1.378,1.378,0,0,0,.083.292,1.042,1.042,0,0,1,.073.26,0.331,0.331,0,0,1-.115.271,0.409,0.409,0,0,0-.135.25,0.481,0.481,0,0,0,.292.323,0.369,0.369,0,0,1,.208.448,0.758,0.758,0,0,1-.333.333,1.443,1.443,0,0,0-.334.25,0.437,0.437,0,0,0-.031.386,0.755,0.755,0,0,0,.219.344,0.087,0.087,0,0,1,.031.083,0.2,0.2,0,0,1-.073.094,1.036,1.036,0,0,1-.115.083c-0.034.021-.079,0.045-0.135,0.073l-0.063.042a0.343,0.343,0,0,1-.427-0.125,1.369,1.369,0,0,1-.281-0.542,1.043,1.043,0,0,0-.333-0.625,0.512,0.512,0,0,0-.6.021,1.426,1.426,0,0,0-.855-0.542,2.446,2.446,0,0,0-1.208-.083c0.084-.014.084-0.118,0-0.313a0.338,0.338,0,0,0-.4-0.25,1.038,1.038,0,0,0,.084-0.364q0.021-.24.021-0.282a1.049,1.049,0,0,1,.25-0.479c0.013-.014.062-0.073,0.145-0.177a2.26,2.26,0,0,0,.2-0.281,0.253,0.253,0,0,1,.1-0.125,1.232,1.232,0,0,0,1.042-.229,1.672,1.672,0,0,0,.24-0.354,2.676,2.676,0,0,1,.218-0.355,0.508,0.508,0,0,1,.292-0.114,0.936,0.936,0,0,1,.3.114,0.731,0.731,0,0,0,.3.105,0.257,0.257,0,0,0,.323-0.23,0.451,0.451,0,0,0-.156-0.416c0.167,0.014.187-.1,0.062-0.354a0.8,0.8,0,0,0-.166-0.188,0.671,0.671,0,0,0-.563.1c-0.111.056-.1,0.111,0.042,0.167a0.56,0.56,0,0,0-.2.219,1.769,1.769,0,0,1-.344.364q-0.166.126-.333-0.1a1.724,1.724,0,0,1-.115-0.281,0.388,0.388,0,0,0-.2-0.281,0.464,0.464,0,0,0-.333.312c0.042-.111-0.035-0.215-0.229-0.312a1.481,1.481,0,0,0-.5-0.167q0.4-.25-0.167-0.563a1.042,1.042,0,0,0-.427-0.1,0.386,0.386,0,0,0-.521.323,0.178,0.178,0,0,0,.1.167,1.313,1.313,0,0,0,.218.114q0.1,0.042.24,0.084a1.509,1.509,0,0,1,.177.062q0.291,0.208.167,0.292c-0.028.014-.087,0.038-0.177,0.073l-0.24.094a0.234,0.234,0,0,0-.125.083,0.34,0.34,0,0,0,0,.292,0.252,0.252,0,0,1-.042.291,0.919,0.919,0,0,1-.187-0.364,1.318,1.318,0,0,0-.146-0.344c0.1,0.125-.076.167-0.521,0.125l-0.208-.021a2.54,2.54,0,0,0-.334.042,1.574,1.574,0,0,1-.427.021,0.389,0.389,0,0,1-.281-0.167,0.543,0.543,0,0,1,0-.417c0.014-.055.042-0.069,0.083-0.041-0.055-.042-0.132-0.108-0.229-0.2a1.8,1.8,0,0,0-.208-0.177,11.764,11.764,0,0,0-1.958.854,0.51,0.51,0,0,0,.25-0.021,2.423,2.423,0,0,0,.27-0.136c0.112-.062.181-0.1,0.209-0.114a1.067,1.067,0,0,1,.875-0.146l0.1-.1a5.725,5.725,0,0,1,.417.521,1.176,1.176,0,0,0-.625-0.021,0.713,0.713,0,0,0-.459.25,0.51,0.51,0,0,1,.1.375c-0.055-.042-0.135-0.111-0.239-0.208a1.646,1.646,0,0,0-.3-0.23,0.845,0.845,0,0,0-.313-0.1,3.271,3.271,0,0,0-.458.021,13.145,13.145,0,0,0-4.9,4.625,0.557,0.557,0,0,0,.25.167,0.19,0.19,0,0,1,.1.187,0.826,0.826,0,0,0,.052.229c0.021,0.042.1,0.021,0.24-.062a0.291,0.291,0,0,1,.062.4,7.5,7.5,0,0,1,.917.562,2.83,2.83,0,0,1,.438.438,0.317,0.317,0,0,1-.209.375,1.042,1.042,0,0,0-.187-0.188c-0.111-.1-0.174-0.125-0.188-0.083a0.445,0.445,0,0,0,.1.385,0.459,0.459,0,0,0,.219.261q-0.145,0-.2.333a4.907,4.907,0,0,0-.052.74,3.066,3.066,0,0,1-.021.489l0.042,0.021a1.3,1.3,0,0,0,.115.719c0.118,0.312.267,0.448,0.448,0.406q-0.271.063,0.416,0.9a0.8,0.8,0,0,0,.167.187c0.042,0.028.125,0.08,0.25,0.157a3.731,3.731,0,0,1,.312.208,0.885,0.885,0,0,1,.209.219,1.823,1.823,0,0,1,.208.469,1.014,1.014,0,0,0,.292.489,0.559,0.559,0,0,0,.2.417,0.716,0.716,0,0,1,.218.479,0.1,0.1,0,0,0-.052.021,0.1,0.1,0,0,1-.052.021,0.716,0.716,0,0,0,.323.291,0.784,0.784,0,0,1,.323.271,1.331,1.331,0,0,1,.042.208,0.768,0.768,0,0,0,.062.23,0.121,0.121,0,0,0,.167.041,2.448,2.448,0,0,0-.5-1.291c-0.208-.348-0.327-0.549-0.354-0.605a1.186,1.186,0,0,1-.115-0.323,1.619,1.619,0,0,0-.094-0.3,0.4,0.4,0,0,1,.125.032c0.056,0.021.115,0.045,0.177,0.073a0.979,0.979,0,0,1,.157.083c0.041,0.028.055,0.049,0.041,0.062a0.447,0.447,0,0,0,.042.365,1.658,1.658,0,0,0,.25.385c0.1,0.112.215,0.243,0.354,0.4s0.222,0.243.25,0.271a2.107,2.107,0,0,1,.292.406q0.166,0.282,0,.282a0.652,0.652,0,0,1,.416.208,1.906,1.906,0,0,1,.355.417,1.551,1.551,0,0,1,.166.541,3.972,3.972,0,0,0,.1.5,0.643,0.643,0,0,0,.177.281,1,1,0,0,0,.26.2l0.333,0.167,0.271,0.146a3.077,3.077,0,0,1,.386.219,2.58,2.58,0,0,0,.448.239,0.945,0.945,0,0,0,.333.084,1.1,1.1,0,0,0,.3-0.053c0.118-.034.212-0.059,0.281-0.072a0.676,0.676,0,0,1,.6.312,2.093,2.093,0,0,0,.438.438,1.431,1.431,0,0,0,1.146.229c-0.028.014,0.007,0.066,0.1,0.156a0.508,0.508,0,0,1,.167.323,0.406,0.406,0,0,0,.187.3c0.111,0.076.149,0.135,0.115,0.177a1.96,1.96,0,0,0,.375.313,2.03,2.03,0,0,1,.375.312,0.3,0.3,0,0,0,.145-0.187,0.442,0.442,0,0,0,.146.416,0.409,0.409,0,0,0,.375.209,0.578,0.578,0,0,0,.292-0.667,0.7,0.7,0,0,1-1.021-.375,0.4,0.4,0,0,0-.052-0.115,1.257,1.257,0,0,1-.083-0.177,1.144,1.144,0,0,1-.052-0.177,0.292,0.292,0,0,1,0-.156,0.1,0.1,0,0,1,.1-0.063,0.2,0.2,0,0,0,.208-0.073,0.515,0.515,0,0,0-.042-0.26c-0.041-.125-0.069-0.215-0.083-0.271a0.9,0.9,0,0,0-.229-0.416c-0.139-.167-0.222-0.271-0.25-0.313a0.317,0.317,0,0,1-.333.167,0.414,0.414,0,0,1-.334-0.188,0.561,0.561,0,0,1-.031.115,0.479,0.479,0,0,0-.031.135,1.183,1.183,0,0,1-.313-0.021,2.42,2.42,0,0,0,.052-0.364,3.524,3.524,0,0,1,.073-0.469,1.133,1.133,0,0,1,.115-0.25c0.062-.111.114-0.212,0.156-0.3a1.014,1.014,0,0,0,.083-0.26,0.183,0.183,0,0,0-.093-0.2,0.6,0.6,0,0,0-.365-0.052,0.574,0.574,0,0,0-.542.416c-0.013.042-.034,0.115-0.062,0.219a0.732,0.732,0,0,1-.1.24,0.515,0.515,0,0,1-.188.145,1.208,1.208,0,0,1-.5.042,1.239,1.239,0,0,1-.5-0.1,1.319,1.319,0,0,1-.468-0.6,1.916,1.916,0,0,1-.2-0.771,3.825,3.825,0,0,1,.052-0.552c0.034-.229.055-0.4,0.062-0.521a1.368,1.368,0,0,0-.114-0.51,1.085,1.085,0,0,0,.187-0.2,1.288,1.288,0,0,1,.208-0.219,0.371,0.371,0,0,1,.094-0.031,0.212,0.212,0,0,1,.094,0,0.086,0.086,0,0,0,.083-0.032,0.258,0.258,0,0,0,.063-0.125,0.757,0.757,0,0,0-.084-0.062,0.191,0.191,0,0,0-.083-0.063,1.185,1.185,0,0,0,.594-0.031,0.685,0.685,0,0,1,.573.031q0.312,0.23.458-.041a1.579,1.579,0,0,0-.052-0.2,0.231,0.231,0,0,1,.1-0.281q0.1,0.563.6,0.187a0.678,0.678,0,0,0,.323.1,1.137,1.137,0,0,1,.365.1,1.457,1.457,0,0,1,.146.115,1.273,1.273,0,0,0,.114.094,0.64,0.64,0,0,1,.1.1c0.049,0.055.108,0.01,0.178-.136a1.39,1.39,0,0,1,.249.5,1.85,1.85,0,0,0,.4.916,0.382,0.382,0,0,0,.23.042,0.189,0.189,0,0,0,.093-0.2,2.01,2.01,0,0,0,0-.292c-0.007-.076-0.017-0.163-0.031-0.26l-0.021-.167v-0.375l-0.021-.167a0.467,0.467,0,0,1-.385-0.25,0.447,0.447,0,0,1,.031-0.385,1.422,1.422,0,0,1,.313-0.385,0.642,0.642,0,0,1,.166-0.073c0.1-.035.2-0.08,0.323-0.136a0.95,0.95,0,0,0,.261-0.166,0.686,0.686,0,0,0,.312-0.73,0.257,0.257,0,0,0,.229-0.187,0.307,0.307,0,0,1-.1-0.063,1.562,1.562,0,0,0-.156-0.1,0.3,0.3,0,0,0-.094-0.041q0.188-.105.042-0.334a0.388,0.388,0,0,0,.156-0.229,0.3,0.3,0,0,1,.156-0.208,0.268,0.268,0,0,0,.438.042,0.241,0.241,0,0,0,.021-0.334,0.7,0.7,0,0,1,.427-0.219,0.554,0.554,0,0,0,.385-0.2c0.1,0.028.153,0.014,0.167-.041a1.105,1.105,0,0,0,.021-0.25,0.411,0.411,0,0,1,.062-0.25,0.712,0.712,0,0,1,.313-0.188c0.152-.055.243-0.09,0.271-0.1l0.354-.229c0.041-.056.041-0.083,0-0.083a0.756,0.756,0,0,0,.645-0.229q0.209-.23-0.124-0.417a0.136,0.136,0,0,0-.063-0.2,1.089,1.089,0,0,0-.312-0.115,0.364,0.364,0,0,1,.239.1c0.118,0.084.191,0.073,0.219-.031q0.312-.208-0.146-0.333a1.127,1.127,0,0,0-.9.25Zm-3.4,18.271a12.891,12.891,0,0,0,7.312-3.938,0.508,0.508,0,0,0-.26-0.093,0.753,0.753,0,0,1-.261-0.073,3.345,3.345,0,0,0-.5-0.167,0.407,0.407,0,0,0-.052-0.271,0.56,0.56,0,0,0-.167-0.187c-0.062-.042-0.149-0.1-0.26-0.167s-0.187-.118-0.229-0.146-0.077-.069-0.146-0.125-0.118-.093-0.146-0.114a1.556,1.556,0,0,0-.156-0.094,0.238,0.238,0,0,0-.177-0.042,0.725,0.725,0,0,1-.208.021L335,907.75a0.575,0.575,0,0,0-.115.052c-0.034.021-.073,0.042-0.114,0.063a0.2,0.2,0,0,0-.083.062,0.037,0.037,0,0,0,0,.052,2.568,2.568,0,0,0-.751-0.458,0.591,0.591,0,0,1-.229-0.115,2.119,2.119,0,0,0-.218-0.146,0.31,0.31,0,0,0-.209-0.031,0.478,0.478,0,0,0-.239.146,0.5,0.5,0,0,0-.125.312,1.556,1.556,0,0,1-.042.271c-0.1-.069-0.1-0.191,0-0.364a0.341,0.341,0,0,0,.042-0.386,0.179,0.179,0,0,0-.219-0.093,0.692,0.692,0,0,0-.25.093c-0.063.042-.142,0.1-0.24,0.177a1.566,1.566,0,0,1-.187.136,2.011,2.011,0,0,0-.177.114,0.676,0.676,0,0,0-.177.157,0.991,0.991,0,0,0-.125.25,1.268,1.268,0,0,1-.1.229,0.356,0.356,0,0,0-.239-0.136,0.227,0.227,0,0,1-.2-0.114,7,7,0,0,1,.083.729,5.828,5.828,0,0,0,.1.792,0.964,0.964,0,0,1-.25,1,1.715,1.715,0,0,0-.6.833,0.4,0.4,0,0,0,.25.542,0.965,0.965,0,0,1-.166.427,0.771,0.771,0,0,0-.146.448,1.78,1.78,0,0,0,.042.333h0Z" transform="translate(-312 -884)"/>
</svg>
