<svg xmlns="http://www.w3.org/2000/svg" width="31.25" height="32" viewBox="0 0 31.25 32">
  <defs>
    <style>
      .cls-1 {
        fill: #2f2f2f;
        fill-rule: evenodd;
      }
    </style>
  </defs>
  <path id="group-del" class="cls-1" d="M186.7,235.59a6.961,6.961,0,0,1-1.519,2.157,7.255,7.255,0,0,1-2.238,1.464,6.927,6.927,0,0,1-2.717.539,7.009,7.009,0,0,1-2.749-.539,7.255,7.255,0,0,1-2.238-1.464,6.986,6.986,0,0,1-1.518-2.157,6.341,6.341,0,0,1-.56-2.651,6.262,6.262,0,0,1,.56-2.619,6.979,6.979,0,0,1,1.518-2.158,7.255,7.255,0,0,1,2.238-1.464,7.009,7.009,0,0,1,2.749-.539,6.927,6.927,0,0,1,2.717.539,7.255,7.255,0,0,1,2.238,1.464,6.965,6.965,0,0,1,1.519,2.158,6.261,6.261,0,0,1,.559,2.619A6.34,6.34,0,0,1,186.7,235.59Zm-2.989-4.716a0.944,0.944,0,0,0,0-1.356,1.032,1.032,0,0,0-1.407,0l-2.11,2.034-2.142-2.034a1.031,1.031,0,0,0-1.406,0,0.942,0.942,0,0,0,0,1.356l2.11,2.065-2.11,2.034a0.942,0.942,0,0,0,0,1.356,1.028,1.028,0,0,0,1.406,0l2.142-2.034,2.11,2.034a1.029,1.029,0,0,0,1.407,0,0.944,0.944,0,0,0,0-1.356l-2.11-2.034Zm-4.189-6.85a8.942,8.942,0,0,0-4.877,1.758c-0.024,0-.047,0-0.071,0A7.884,7.884,0,1,1,179.517,224.024Zm-12.081-.2c-0.128.008-.25,0.039-0.38,0.039a6.432,6.432,0,0,1,0-12.863c0.165,0,.32.036,0.482,0.049A9.453,9.453,0,0,0,167.436,223.824Zm-2.785,1.809A16.851,16.851,0,0,0,159.968,233H156c0-2.325,1.766-7.416,5.72-8.873A8.468,8.468,0,0,0,164.651,225.633Zm3.369,0.478a10.4,10.4,0,0,0,4.4,2.056,8.94,8.94,0,0,0-.469,8.833H161C161,234.147,163.167,227.9,168.02,226.111Z" transform="translate(-156 -208.875)"/>
</svg>
