<svg xmlns="http://www.w3.org/2000/svg" width="32" height="32" viewBox="0 0 32 32">
  <defs>
    <style>
      .cls-1 {
        fill: #2f2f2f;
        fill-rule: evenodd;
      }
    </style>
  </defs>
  <path id="group" class="cls-1" d="M57,237c0-2.853,2.167-9.1,7.02-10.889a10.456,10.456,0,0,0,13.04.046h0C81.816,227.968,84,234.172,84,237H57Zm13.569-11.214a7.893,7.893,0,1,1,7.865-7.893A7.878,7.878,0,0,1,70.569,225.786Zm-7.132-1.962c-0.128.008-.25,0.039-0.38,0.039a6.432,6.432,0,0,1,0-12.863c0.165,0,.32.036,0.482,0.049A9.452,9.452,0,0,0,63.436,223.824Zm-2.785,1.809A16.843,16.843,0,0,0,55.968,233H52c0-2.325,1.766-7.416,5.72-8.873A8.473,8.473,0,0,0,60.651,225.633Z" transform="translate(-52 -207.5)"/>
</svg>
