<svg xmlns="http://www.w3.org/2000/svg" width="31.094" height="32" viewBox="0 0 31.094 32">
  <defs>
    <style>
      .cls-1 {
        fill: #2f2f2f;
        fill-rule: evenodd;
      }
    </style>
  </defs>
  <path id="group-add" class="cls-1" d="M134.562,235.444a7.2,7.2,0,0,1-3.865,3.865,7.237,7.237,0,0,1-2.618.547,6.957,6.957,0,0,1-2.6-.451,6.357,6.357,0,0,1-2.27-1.479,6.256,6.256,0,0,1-1.456-2.248,6.958,6.958,0,0,1-.452-2.6,7.253,7.253,0,0,1,.547-2.617,7.013,7.013,0,0,1,1.563-2.326,6.925,6.925,0,0,1,2.3-1.54,7.262,7.262,0,0,1,2.618-.547,6.958,6.958,0,0,1,2.6.452,6.269,6.269,0,0,1,2.248,1.456,6.357,6.357,0,0,1,1.479,2.27,6.957,6.957,0,0,1,.451,2.6A7.237,7.237,0,0,1,134.562,235.444Zm-1.771-3.263a0.906,0.906,0,0,0-.683-0.276l-2.93.053,0.032-2.951a0.943,0.943,0,0,0-.959-0.959,1.032,1.032,0,0,0-1,.994l-0.053,2.93-2.953.077a1.03,1.03,0,0,0-1,.994,0.943,0.943,0,0,0,.959.959l2.952-.032-0.053,2.93a0.941,0.941,0,0,0,.958.959,1.03,1.03,0,0,0,1-.994l0.076-2.953,2.93-.054a1.03,1.03,0,0,0,1-.994A0.9,0.9,0,0,0,132.791,232.181Zm-5.274-8.157a8.942,8.942,0,0,0-4.877,1.758c-0.024,0-.047,0-0.071,0A7.884,7.884,0,1,1,127.517,224.024Zm-12.081-.2c-0.128.008-.25,0.039-0.38,0.039a6.432,6.432,0,0,1,0-12.863c0.165,0,.32.036,0.482,0.049A9.453,9.453,0,0,0,115.436,223.824Zm-2.785,1.809A16.851,16.851,0,0,0,107.968,233H104c0-2.325,1.766-7.416,5.72-8.873A8.468,8.468,0,0,0,112.651,225.633Zm3.369,0.478a10.4,10.4,0,0,0,4.4,2.056,8.94,8.94,0,0,0-.469,8.833H109C109,234.147,111.167,227.9,116.02,226.111Z" transform="translate(-104 -208.922)"/>
</svg>
