<svg xmlns="http://www.w3.org/2000/svg" width="31.906" height="32" viewBox="0 0 31.906 32">
  <defs>
    <style>
      .cls-1 {
        fill: #2f2f2f;
        fill-rule: evenodd;
      }
    </style>
  </defs>
  <path id="handshake" class="cls-1" d="M290.659,431.962a2.5,2.5,0,0,1-3.415-.915l-3.5-6.526a2.5,2.5,0,1,1,4.33-2.5l3.5,6.526A2.5,2.5,0,0,1,290.659,431.962Zm-4.695,3.531a2.462,2.462,0,0,1,.319,2.852,2.151,2.151,0,0,1-1.941,1.081,1.909,1.909,0,0,1-.575,1.648,2.339,2.339,0,0,0-2.644,2.1,2.088,2.088,0,0,1-2.629-.2,1.835,1.835,0,0,1-1.529,1.263,1.893,1.893,0,0,1-1.471-.39s-0.973,1.889-2.359.825a1.425,1.425,0,0,1-.262-1.81s-1.182,1.924-2.585.478a1.372,1.372,0,0,1-.06-1.865,1.561,1.561,0,0,1-2.341.122,1.643,1.643,0,0,0-2.637-1.951,1.713,1.713,0,0,1-.236-1.706l1.285-1.81-1.735-2.29,0.585-1.277,2.052,2.67s1.334-.314,1.8.546a1.856,1.856,0,0,1,.248,1.51,0.947,0.947,0,0,1,.3.335,1.538,1.538,0,0,1,1.471.443,1.491,1.491,0,0,1,.45,1.23,0.918,0.918,0,0,1,.44.384,1.433,1.433,0,0,1,1.341.313,1.645,1.645,0,0,1,.5,1.117l0.839,0.631a1.023,1.023,0,0,1,.906.7l0.752,0.572a0.848,0.848,0,0,0,1.268-.748l-2.821-2.214s-0.331-.893.7-0.754l4.205,3.052a0.882,0.882,0,0,0,1.1-.37,0.966,0.966,0,0,0-.17-1.209l-4.473-3.33a0.57,0.57,0,0,1,.621-0.86l5.307,3.869a0.869,0.869,0,0,0,1.071-.27,1.019,1.019,0,0,0,0-1.174L277.2,434.6s-0.353-1.056.744-.782l6.041,4.433a1.122,1.122,0,0,0,1.32-.472,1.227,1.227,0,0,0-.176-1.506l-8.546-7.681a1.917,1.917,0,0,0-2.535.854,3.534,3.534,0,0,1-3.042,3.152s-1.96-.155-1.5-1.481a4.123,4.123,0,0,0,.525-2.437,4.316,4.316,0,0,1,.862-2.2h-3.077l0.676-1.444h4.648a7.362,7.362,0,0,1,3.348-1.011,9.09,9.09,0,0,1,2.381.4,11.232,11.232,0,0,0,3.6.627l4.159,8.883Zm-21.612-2.811a2.207,2.207,0,0,1-3.188.953,2.775,2.775,0,0,1-.854-3.557l3.334-6.755a2.206,2.206,0,0,1,3.187-.953,2.775,2.775,0,0,1,.854,3.557Z" transform="translate(-260 -416.875)"/>
</svg>
