<svg xmlns="http://www.w3.org/2000/svg" width="32" height="32" viewBox="0 0 32 32">
  <defs>
    <style>
      .cls-1 {
        fill: #2f2f2f;
        fill-rule: evenodd;
      }
    </style>
  </defs>
  <path id="heart-empty" class="cls-1" d="M393.5,227.07a25.4,25.4,0,0,1-5.336,5.843,37.63,37.63,0,0,1-7.665,4.864L380,238l-0.5-.223a37.844,37.844,0,0,1-7.668-4.864,25.313,25.313,0,0,1-5.336-5.843A14.881,14.881,0,0,1,364,219a11.013,11.013,0,0,1,1.494-5.714,8.809,8.809,0,0,1,3.941-3.516,9.205,9.205,0,0,1,5.578-.578A12.186,12.186,0,0,1,380,211.541a12.18,12.18,0,0,1,4.987-2.349,9.176,9.176,0,0,1,5.578.578,8.788,8.788,0,0,1,3.941,3.516A11.024,11.024,0,0,1,396,219,14.909,14.909,0,0,1,393.5,227.07Zm-0.769-7.76c0-3.052-1.405-5.5-3.755-6.54-2.521-1.118-5.592-.411-8.22,1.9L380,215.33l-0.757-.665a8.836,8.836,0,0,0-5.724-2.419,6.109,6.109,0,0,0-2.492.521c-2.35,1.044-3.755,3.491-3.755,6.543a11.584,11.584,0,0,0,1.977,6.284,21.412,21.412,0,0,0,4.5,4.9A34.487,34.487,0,0,0,380,234.518a34.313,34.313,0,0,0,6.247-4.023,21.322,21.322,0,0,0,4.5-4.9A11.591,11.591,0,0,0,392.732,219.31Z" transform="translate(-364 -207.5)"/>
</svg>
