<svg xmlns="http://www.w3.org/2000/svg" width="32" height="32" viewBox="0 0 32 32">
  <defs>
    <style>
      .cls-1 {
        fill: #2f2f2f;
        fill-rule: evenodd;
      }
    </style>
  </defs>
  <path id="heart" class="cls-1" d="M445.5,227.07a25.4,25.4,0,0,1-5.336,5.843,37.63,37.63,0,0,1-7.665,4.864L432,238l-0.5-.223a37.844,37.844,0,0,1-7.668-4.864,25.313,25.313,0,0,1-5.336-5.843A14.881,14.881,0,0,1,416,219a11.013,11.013,0,0,1,1.494-5.714,8.809,8.809,0,0,1,3.941-3.516,9.205,9.205,0,0,1,5.578-.578A12.186,12.186,0,0,1,432,211.541a12.18,12.18,0,0,1,4.987-2.349,9.176,9.176,0,0,1,5.578.578,8.788,8.788,0,0,1,3.941,3.516A11.024,11.024,0,0,1,448,219,14.909,14.909,0,0,1,445.5,227.07Z" transform="translate(-416 -207.5)"/>
</svg>
