<svg xmlns="http://www.w3.org/2000/svg" width="32" height="32" viewBox="0 0 32 32">
  <defs>
    <style>
      .cls-1 {
        fill: #2f2f2f;
        fill-rule: evenodd;
      }
    </style>
  </defs>
  <path id="hot" class="cls-1" d="M425.625,708c-2.06-4.46-.975-7.024.651-9.366a15.452,15.452,0,0,0,2.168-5.24,6.074,6.074,0,0,1,.868,4.683,12.563,12.563,0,0,0,2.493-8.92c5.422,3.9,7.807,12.488,4.663,18.731,16.7-9.811,4.12-24.418,1.951-25.979,0.759,1.673.868,4.46-.65,5.8C435.275,677.9,429.1,676,429.1,676c0.759,5.017-2.6,10.481-5.855,14.606a10.83,10.83,0,0,0-1.3-5.352c-0.217,3.68-2.927,6.579-3.686,10.258-0.976,5.018.759,8.586,7.372,12.488h0Z" transform="translate(-415.5 -676)"/>
</svg>
