<svg xmlns="http://www.w3.org/2000/svg" width="32" height="32" viewBox="0 0 32 32">
  <defs>
    <style>
      .cls-1 {
        fill: #2f2f2f;
        fill-rule: evenodd;
      }
    </style>
  </defs>
  <path id="id" class="cls-1" d="M184.313,315H159.684A3.769,3.769,0,0,0,156,318.847v17.309A3.766,3.766,0,0,0,159.684,340h24.632A3.768,3.768,0,0,0,188,336.156V318.847A3.773,3.773,0,0,0,184.313,315h0Zm-7.821,7.636h5.115a1.033,1.033,0,0,1,0,2h-5.115a1.033,1.033,0,0,1,0-2h0Zm0,4.282h5.115a1.033,1.033,0,0,1,0,2h-5.115a1.033,1.033,0,0,1,0-2h0Zm-16.7,7.443a0.767,0.767,0,0,1-.584-0.9,6.758,6.758,0,0,1,4.665-5.289,4.044,4.044,0,0,1-2.05-3.538,3.86,3.86,0,1,1,7.712,0,4.042,4.042,0,0,1-2.05,3.538,6.751,6.751,0,0,1,4.666,5.309,0.766,0.766,0,0,1-.588.9h0a0.66,0.66,0,0,1-.137.013m12.639-1.187h-7.574a1.033,1.033,0,0,1,0-2h7.574a1.033,1.033,0,0,1,0,2h0Z" transform="translate(-156 -311.5)"/>
</svg>
