<svg xmlns="http://www.w3.org/2000/svg" width="32" height="32" viewBox="0 0 32 32">
  <defs>
    <style>
      .cls-1 {
        fill: #2f2f2f;
        fill-rule: evenodd;
      }
    </style>
  </defs>
  <path id="ie" class="cls-1" d="M284.15,1110.56h7.766a16,16,0,0,0,.084-1.7,15.334,15.334,0,0,0-1.944-7.5c1.278-3.51,1.235-6.49-.478-8.27-1.631-1.68-6-1.41-10.938.86-0.366-.03-0.735-0.05-1.107-0.05a14.589,14.589,0,0,0-14.038,11.32,20.382,20.382,0,0,1,7.351-6.34c-0.272.26-1.857,1.9-2.126,2.17-7.875,8.14-10.36,18.78-7.688,21.55,2.032,2.1,5.716,1.74,9.948-.4a13.972,13.972,0,0,0,6.553,1.62,14.514,14.514,0,0,0,13.689-10.12H283.4a6.27,6.27,0,0,1-11.2,0,6.806,6.806,0,0,1-.754-3.12v-0.02H284.15Zm-12.695-3.94a6.08,6.08,0,0,1,12.157,0H271.455Zm18.051-11.87c1.1,1.15,1.075,3.27.131,5.92a14.573,14.573,0,0,0-6.738-5.7c2.966-1.32,5.376-1.49,6.607-.22h0Zm-26.433,27.32c-1.406-1.45-.984-4.51.832-8.19a14.943,14.943,0,0,0,6.162,7.8c-3.14,1.47-5.709,1.72-6.994.39h0Z" transform="translate(-260 -1092)"/>
</svg>
