<svg xmlns="http://www.w3.org/2000/svg" width="32" height="31.969" viewBox="0 0 32 31.969">
  <defs>
    <style>
      .cls-1 {
        fill: #2f2f2f;
        fill-rule: evenodd;
      }
    </style>
  </defs>
  <path id="laud" class="cls-1" d="M287.662,739.031c-0.966-.06-4.17.48-5.857,0.625a28.688,28.688,0,0,1,.893-3.338c0.482-1.694,1.255-3.358,1-5.327-0.44-3.342-4.411-4.188-5.6-.968-0.086.231-1.691,3.964-1.691,3.964-1.3,2.051-1.336,2.463-4.5,4.649-2.725,1.884-3.3,2.393-3.8,2.792a1.878,1.878,0,0,0-.709,1.231v13.567a1.393,1.393,0,0,0,.606,1.143c2.087,1.452,9.449,2.631,13.148,2.631,1.924,0,3.008.05,4.524-.766a4.984,4.984,0,0,0,1.309-1.462c1.855-1.668,1.316-3.914,1.769-4.356,2.1-2.058,1.67-4.545,1.963-5.215a12.584,12.584,0,0,0,.9-3.184C292.877,740.553,290.93,739.237,287.662,739.031Zm-25.293,1.178A2.33,2.33,0,0,0,260,742.5v13.848a2.37,2.37,0,0,0,4.738,0V742.5a2.329,2.329,0,0,0-2.369-2.288h0Z" transform="translate(-260 -728.031)"/>
</svg>
