<svg xmlns="http://www.w3.org/2000/svg" width="31.469" height="31.437" viewBox="0 0 31.469 31.437">
  <defs>
    <style>
      .cls-1 {
        fill: #2f2f2f;
        fill-rule: evenodd;
      }
    </style>
  </defs>
  <path id="link" class="cls-1" d="M289.3,900.265l-3.23,3.23a2.347,2.347,0,0,1-3.318-3.318h0l3.229-3.229a4.694,4.694,0,0,0-6.635-6.636l-3.231,3.231a2.347,2.347,0,0,1-3.318-3.318h0l3.231-3.231A9.388,9.388,0,0,1,289.3,900.265Zm-17.943,4.671a2.316,2.316,0,0,1-.043-3.274l6.461-6.461a2.347,2.347,0,0,1,3.318,3.318l-6.461,6.461A2.317,2.317,0,0,1,271.357,904.936Zm-1.7-4.933h0l-3.231,3.231a4.694,4.694,0,0,0,6.636,6.635l3.229-3.229h0a2.346,2.346,0,0,1,3.317,3.317h0l-3.23,3.231a9.388,9.388,0,0,1-13.272-13.272l3.231-3.23h0A2.347,2.347,0,0,1,269.655,900Z" transform="translate(-260.469 -884.375)"/>
</svg>
