<svg xmlns="http://www.w3.org/2000/svg" width="32" height="32" viewBox="0 0 32 32">
  <defs>
    <style>
      .cls-1 {
        fill: #2f2f2f;
        fill-rule: evenodd;
      }
    </style>
  </defs>
  <path id="loading" class="cls-1" d="M276,1144a3.145,3.145,0,1,0,3.143,3.14A3.144,3.144,0,0,0,276,1144Zm-3.143,28.86a3.143,3.143,0,1,0,3.143-3.15A3.144,3.144,0,0,0,272.857,1172.86ZM285.714,1160a3.143,3.143,0,1,0,3.143-3.14A3.138,3.138,0,0,0,285.714,1160ZM260,1160a3.143,3.143,0,1,0,3.143-3.14A3.138,3.138,0,0,0,260,1160Zm27.314-6.87a3.141,3.141,0,1,0-4.445,0A3.138,3.138,0,0,0,287.314,1153.13Zm-23.548,15.96a3.143,3.143,0,1,0,3.143-3.14A3.138,3.138,0,0,0,263.766,1169.09Zm18.183,0a3.143,3.143,0,0,0,6.285,0h0a3.143,3.143,0,0,0-6.285,0h0Zm-18.183-18.18a3.143,3.143,0,1,0,3.143-3.14A3.144,3.144,0,0,0,263.766,1150.91Z" transform="translate(-260 -1144)"/>
</svg>
