<svg xmlns="http://www.w3.org/2000/svg" width="32" height="32" viewBox="0 0 32 32">
  <defs>
    <style>
      .cls-1 {
        fill: #2f2f2f;
        fill-rule: evenodd;
      }
    </style>
  </defs>
  <path id="lock" class="cls-1" d="M285,188H267a4,4,0,0,1-4-4V172a4,4,0,0,1,4-4h0.059a8.935,8.935,0,0,1-.059-1v-2a9,9,0,0,1,18,0v2a8.935,8.935,0,0,1-.059,1H285a4,4,0,0,1,4,4v12A4,4,0,0,1,285,188Zm-4-23a5,5,0,0,0-10,0v3h10v-3Zm-1,11h-1.184a3,3,0,1,0,0,2H280A1,1,0,0,0,280,176Z" transform="translate(-260 -156)"/>
</svg>
