<svg xmlns="http://www.w3.org/2000/svg" width="32" height="32" viewBox="0 0 32 32">
  <defs>
    <style>
      .cls-1 {
        fill: #2f2f2f;
        fill-rule: evenodd;
      }
    </style>
  </defs>
  <path id="lock-open" class="cls-1" d="M337,187H319a4,4,0,0,1-4-4V171a4,4,0,0,1,4-4h0.059a8.935,8.935,0,0,1-.059-1v-2a9,9,0,0,1,17.719-2.24l-0.1.033a1.857,1.857,0,1,1-3.5,1.167l-0.215.072A5,5,0,0,0,323,164v3h14a4,4,0,0,1,4,4v12A4,4,0,0,1,337,187Zm-5-12h-1.184a3,3,0,1,0,0,2H332A1,1,0,0,0,332,175Z" transform="translate(-312 -155)"/>
</svg>
