<svg xmlns="http://www.w3.org/2000/svg" width="32" height="32" viewBox="0 0 32 32">
  <defs>
    <style>
      .cls-1 {
        fill: #2f2f2f;
        fill-rule: evenodd;
      }
    </style>
  </defs>
  <path id="macbool" class="cls-1" d="M706.545,527.933A2.856,2.856,0,0,0,703.636,525H680.364a2.856,2.856,0,0,0-2.909,2.933V542.6h29.09V527.933ZM676,545.533A1.4,1.4,0,0,0,677.412,547h29.129a1.467,1.467,0,0,0,0-2.933H677.412A1.4,1.4,0,0,0,676,545.533Zm12.364-.733h5.818a0.734,0.734,0,0,1,0,1.467h-5.818A0.734,0.734,0,0,1,688.364,544.8Z" transform="translate(-676 -520)"/>
</svg>
