<svg xmlns="http://www.w3.org/2000/svg" width="32" height="32" viewBox="0 0 32 32">
  <defs>
    <style>
      .cls-1 {
        fill: #2f2f2f;
        fill-rule: evenodd;
      }
    </style>
  </defs>
  <path id="man" class="cls-1" d="M64.355,330.553a4.7,4.7,0,0,0,3.707,1.743,4.808,4.808,0,0,0,3.708-1.619,3.689,3.689,0,0,1,.128-1.992,13.373,13.373,0,0,0,3.708-8.841c0-5.105-3.452-7.844-7.543-7.844s-7.543,2.739-7.543,7.844a12.784,12.784,0,0,0,3.707,8.841,2.434,2.434,0,0,1,.128,1.868h0Zm8.821,1.12s-1.278,5.977-3.068,9.214a37.5,37.5,0,0,0-1.662-4.856s1.406-.5,1.406-1.494c0-1.121-1.79-1.743-1.79-1.743s-1.918.373-1.918,1.743c0,0.872,1.406,1.494,1.406,1.494a34.149,34.149,0,0,0-1.662,4.607,47.911,47.911,0,0,1-2.94-8.965C58.73,333.167,54,335.907,54,338.521v1c0,3.61,7.287,4.482,14.063,4.482S82,343.128,82,339.518v-1c0.128-2.739-4.475-5.354-8.821-6.848h0Z" transform="translate(-52 -312)"/>
</svg>
