<svg xmlns="http://www.w3.org/2000/svg" width="32" height="32" viewBox="0 0 32 32">
  <defs>
    <style>
      .cls-1 {
        fill: #2f2f2f;
        fill-rule: evenodd;
      }
    </style>
  </defs>
  <path id="map-marker" class="cls-1" d="M323.264,62.2a4.843,4.843,0,0,1,4.745-4.854,4.767,4.767,0,0,1,4.718,4.854,4.716,4.716,0,0,1-4.718,4.854A4.79,4.79,0,0,1,323.264,62.2Zm-5.257,0a10.09,10.09,0,0,0,.431,2.978H318.33c0.836,1.986,1.78,4.067,2.588,5.654l1.348,2.648c2.362,4.639,5.258,9.736,5.689,10.4a0.056,0.056,0,0,1,.027.055c0,0.028,0,.055.027,0.055,1.617-2.785,3.014-5.3,4.071-7.308l1.7-3.227,1.321-2.648c0.784-1.57,1.725-3.612,2.561-5.626H337.58A10.04,10.04,0,1,0,318.007,62.2h0Z" transform="translate(-312 -52)"/>
</svg>
