<svg xmlns="http://www.w3.org/2000/svg" width="32" height="32" viewBox="0 0 32 32">
  <defs>
    <style>
      .cls-1 {
        fill: #2f2f2f;
        fill-rule: evenodd;
      }
    </style>
  </defs>
  <path id="map" class="cls-1" d="M281.474,74.875a8.345,8.345,0,0,1,2.021-2.838,3.846,3.846,0,0,1,1.018-.68c-0.187-.255-0.331-0.481-0.475-0.7-0.264-.4-0.543-0.849-0.679-1.07A8.792,8.792,0,0,0,280.931,72a16.226,16.226,0,0,0-1.087,1.683l1.63,1.189h0Zm-6.909,2.21c0.186,0.458.288,0.919,0.424,1.274a5.36,5.36,0,0,0,.17.613,18.617,18.617,0,0,0,1.817-.631,9.219,9.219,0,0,0,2.987-1.834l-1.409-1.513a5.616,5.616,0,0,1-.95.714,11.469,11.469,0,0,1-3.039,1.377h0Zm-2.394-18.8a3.016,3.016,0,0,1,2.988-2.991,2.968,2.968,0,0,1,2.971,2.991,2.937,2.937,0,0,1-2.971,2.991A2.983,2.983,0,0,1,272.171,58.288Zm-3.31,0a6.074,6.074,0,0,0,.271,1.835h-0.068c0.526,1.224,1.121,2.506,1.63,3.484l0.849,1.632c1.487,2.859,3.31,6,3.582,6.407a0.034,0.034,0,0,1,.017.034c0,0.017,0,.034.017,0.034,1.018-1.716,1.9-3.265,2.563-4.5l1.07-1.989,0.832-1.632c0.494-.968,1.086-2.226,1.613-3.467h-0.051a6.105,6.105,0,0,0,.271-1.835,6.3,6.3,0,0,0-12.6,0h0Zm-1.206,18.694a11.464,11.464,0,0,0,1.511.952,11.177,11.177,0,0,0,3.531,1.276c0.051-.41.078-0.939,0.136-1.327l0.1-.68a7.863,7.863,0,0,1-1.256-.34,12.159,12.159,0,0,1-2.836-1.512c-0.288.425-.583,0.806-0.814,1.121l-0.374.51h0ZM261,81.672A2.331,2.331,0,0,0,263.326,84h26.348A2.319,2.319,0,0,0,292,81.672V62.452a2.32,2.32,0,0,0-2.326-2.329h-6.4l-1.121,3.144h6.333a0.459,0.459,0,0,1,.492.476v4.181a8.016,8.016,0,0,0-3.65.731l0.17,0.459,0.543,1.41A14.165,14.165,0,0,1,288.078,70l0.9-.136V80.483a0.458,0.458,0,0,1-.492.475H264.633a0.458,0.458,0,0,1-.492-0.475V73.992c0.135,0.136.292,0.285,0.475,0.442,0.292,0.251.73,0.663,1.29,1.139,0.323-.289.625-0.666,0.883-0.935a5.993,5.993,0,0,0,.408-0.459,26.384,26.384,0,0,1-3.056-3.144V63.744a0.468,0.468,0,0,1,.492-0.476h3.429l-1.035-3.144h-3.7A2.33,2.33,0,0,0,261,62.452v19.22h0Z" transform="translate(-260.5 -52)"/>
</svg>
