<svg xmlns="http://www.w3.org/2000/svg" width="32" height="32" viewBox="0 0 32 32">
  <defs>
    <style>
      .cls-1 {
        fill: #2f2f2f;
        fill-rule: evenodd;
      }
    </style>
  </defs>
  <path id="medal" class="cls-1" d="M339,627.2a3.251,3.251,0,0,0-3.3-3.2H320.3a3.253,3.253,0,0,0-3.3,3.2v7.75l3.88,3.51a9.956,9.956,0,0,0-3.33,7.4,10.455,10.455,0,0,0,20.9,0,9.951,9.951,0,0,0-3.069-7.173l3.619-3.74V627.2Zm-7.425,1.063a0.825,0.825,0,0,1,1.65,0v4.266a0.825,0.825,0,0,1-1.65,0v-4.266Zm-4.4-1.067a0.825,0.825,0,0,1,1.65,0v6.4a0.825,0.825,0,0,1-1.65,0v-6.4Zm-4.4,1.067a0.825,0.825,0,0,1,1.65,0v4.266a0.825,0.825,0,0,1-1.65,0v-4.266Zm9.539,16.9-1.96,1.853,0.463,2.615c0.051,0.291-.126.415-0.394,0.278L328,648.681l-2.423,1.235c-0.269.137-.445,0.012-0.393-0.278l0.462-2.615-1.96-1.853c-0.217-.2-0.149-0.407.151-0.449l2.708-.382,1.212-2.379c0.134-.265.352-0.264,0.487,0l1.211,2.379,2.708,0.382C332.464,644.763,332.531,644.965,332.314,645.17Z" transform="translate(-312 -624)"/>
</svg>
