<svg xmlns="http://www.w3.org/2000/svg" width="32" height="32" viewBox="0 0 32 32">
  <defs>
    <style>
      .cls-1 {
        fill: #2f2f2f;
        fill-rule: evenodd;
      }
    </style>
  </defs>
  <path id="message" class="cls-1" d="M288.09,321.915L276.8,327.437a1.037,1.037,0,0,1-.9.008l-11.284-5.279a1.085,1.085,0,0,1-.52-1.426,1.047,1.047,0,0,1,1.4-.529l9.488,4.44a3.112,3.112,0,0,0,2.679-.023l9.515-4.652a1.047,1.047,0,0,1,1.408.5,1.085,1.085,0,0,1-.494,1.435h0Zm3.768-.371A6.709,6.709,0,0,0,285,315l-18.283.2A6.7,6.7,0,0,0,260,321.888l0.143,12.568A6.708,6.708,0,0,0,267.005,341l18.283-.2A6.7,6.7,0,0,0,292,334.112Z" transform="translate(-260 -312)"/>
</svg>
