<svg xmlns="http://www.w3.org/2000/svg" width="32" height="32" viewBox="0 0 32 32">
  <defs>
    <style>
      .cls-1 {
        fill: #2f2f2f;
        fill-rule: evenodd;
      }
    </style>
  </defs>
  <path id="mic" class="cls-1" d="M652,276.269a12.369,12.369,0,0,1-10.22,12.109v1.943a1.692,1.692,0,0,1-1.7,1.679h-0.011a1.692,1.692,0,0,1-1.705-1.679v-1.789A12.387,12.387,0,0,1,627,276.269h0.008a1.16,1.16,0,1,1,2.315-.132,1.161,1.161,0,0,1-.04.3,10.223,10.223,0,0,0,20.434,0,1.159,1.159,0,1,1,2.283-.3,1.141,1.141,0,0,1-.008.132H652ZM639.526,284h-0.007a7.9,7.9,0,0,1-7.959-7.84V267.84a7.9,7.9,0,0,1,7.959-7.84h0.007a7.9,7.9,0,0,1,7.958,7.84v8.323A7.9,7.9,0,0,1,639.526,284Z" transform="translate(-623.5 -260)"/>
</svg>
