<svg xmlns="http://www.w3.org/2000/svg" width="32" height="32" viewBox="0 0 32 32">
  <defs>
    <style>
      .cls-1 {
        fill: #2f2f2f;
        fill-rule: evenodd;
      }
    </style>
  </defs>
  <path id="move" class="cls-1" d="M759.959,68.4a1.479,1.479,0,0,1-.388,1.24l-4.782,4.893a1.427,1.427,0,0,1-2.05,0,1.507,1.507,0,0,1,0-2.1L755.124,70h-9.232v8.862l2.443-2.425a1.462,1.462,0,0,1,2.057,0,1.436,1.436,0,0,1,0,2.041l-4.8,4.764a1.38,1.38,0,0,1-.287.189,1.963,1.963,0,0,1-1.383.569,1.988,1.988,0,0,1-.4-0.041,1.438,1.438,0,0,1-1.219-.388l-4.818-4.782a1.442,1.442,0,0,1,0-2.05,1.468,1.468,0,0,1,2.065,0l2.4,2.385V70h-8.841l2.432,2.432a1.506,1.506,0,1,1-2.13,2.13l-4.969-4.969a1.481,1.481,0,0,1-.39-1.33A2.271,2.271,0,0,1,728,67.778a1.752,1.752,0,0,1,.618-1.323,1.406,1.406,0,0,1,.17-0.256l4.95-4.95a1.5,1.5,0,1,1,2.121,2.121L733.23,66h8.724V57.113l-2.395,2.432a1.466,1.466,0,0,1-2.1,0,1.523,1.523,0,0,1,0-2.13l4.892-4.969a1.442,1.442,0,0,1,1.308-.39A2.195,2.195,0,0,1,744.142,52a1.724,1.724,0,0,1,1.314.626,1.417,1.417,0,0,1,.24.162l4.874,4.95a1.516,1.516,0,0,1,0,2.121,1.461,1.461,0,0,1-2.089,0l-2.589-2.629V66h8.97l-2.426-2.481a1.5,1.5,0,0,1,0-2.089,1.421,1.421,0,0,1,2.042,0l4.764,4.874a1.451,1.451,0,0,1,.222.342A1.986,1.986,0,0,1,759.959,68.4Z" transform="translate(-728 -52)"/>
</svg>
