<svg xmlns="http://www.w3.org/2000/svg" width="32" height="31.998" viewBox="0 0 30.002 30">
  <defs>
    <style>
      .cls-1 {
        fill: #2f2f2f;
        fill-rule: evenodd;
      }
    </style>
  </defs>
  <path id="music" class="cls-1" d="M596.722,267.683a6.394,6.394,0,0,1-6.385-6.4,1.279,1.279,0,0,0-1.278-1.28h-0.1a1.172,1.172,0,0,0-1.105.85,1.274,1.274,0,0,0-.074.43c0,0.239.01,0.475,0.028,0.709v14.282a8.081,8.081,0,1,0,2.3,5.652v-0.011h0v-14.6a8.908,8.908,0,0,0,6.61,2.929A1.281,1.281,0,0,0,596.722,267.683Z" transform="translate(-570.999 -260)"/>
</svg>
