<svg xmlns="http://www.w3.org/2000/svg" width="32" height="32" viewBox="0 0 32 32">
  <defs>
    <style>
      .cls-1 {
        fill: #2f2f2f;
        fill-rule: evenodd;
      }
    </style>
  </defs>
  <path id="news" class="cls-1" d="M339,444H320a3,3,0,0,1-3-3V419a3,3,0,0,1,3-3h19a3,3,0,0,1,3,3v22A3,3,0,0,1,339,444Zm-9-23a2,2,0,0,0-2-2h-6a2,2,0,0,0-2,2v9a2,2,0,0,0,2,2h6a2,2,0,0,0,2-2v-9Zm7.5-2h-4a1.5,1.5,0,0,0,0,3h4A1.5,1.5,0,0,0,337.5,419Zm0,5h-4a1.5,1.5,0,0,0,0,3h4A1.5,1.5,0,0,0,337.5,424Zm0,5h-4a1.5,1.5,0,0,0,0,3h4A1.5,1.5,0,0,0,337.5,429Zm0,5h-16a1.5,1.5,0,0,0,0,3h16A1.5,1.5,0,0,0,337.5,434Zm0,5h-16a1.5,1.5,0,0,0,0,3h16A1.5,1.5,0,0,0,337.5,439Zm-0.833,6A1.333,1.333,0,0,1,338,446.333,1.667,1.667,0,0,1,336.333,448H314.5a1.5,1.5,0,0,1-1.5-1.5V424.333A1.333,1.333,0,0,1,314.333,423,1.667,1.667,0,0,1,316,424.667V445h20.667Z" transform="translate(-311.5 -416)"/>
</svg>
