<svg xmlns="http://www.w3.org/2000/svg" width="32" height="32" viewBox="0 0 32 32">
  <defs>
    <style>
      .cls-1 {
        fill: #2f2f2f;
        fill-rule: evenodd;
      }
    </style>
  </defs>
  <path id="ok" class="cls-1" d="M380,104a16,16,0,1,1-16,16A16,16,0,0,1,380,104Zm9.992,12.547-11.781,11.781a1.765,1.765,0,0,1-2.365-.191,1.978,1.978,0,0,1-.967-0.53l-5.243-5.242a2,2,0,1,1,2.827-2.83l4.442,4.442,10.259-10.259a1.819,1.819,0,0,1,2.511.317h0A1.818,1.818,0,0,1,389.992,116.547Z" transform="translate(-364 -104)"/>
</svg>
