<svg xmlns="http://www.w3.org/2000/svg" width="31.955" height="31.92" viewBox="0 0 28.031 28">
  <defs>
    <style>
      .cls-1 {
        fill: #2f2f2f;
        fill-rule: evenodd;
      }
    </style>
  </defs>
  <path id="pencil" class="cls-1" d="M381.781,56.624l1.79-1.773a2.872,2.872,0,0,1,4.032-.043l5.583,5.527a2.8,2.8,0,0,1-.044,3.991L391.351,66.1ZM390.2,67.235l-13.36,13.226a8.458,8.458,0,0,1-2.892,1.484L368.819,82A2.763,2.763,0,0,1,366,79.209l0.061-5.644a2.838,2.838,0,0,1,.607-1.707,2.909,2.909,0,0,1,.6-0.872l13.36-13.226Z" transform="translate(-366 -54)"/>
</svg>
