<svg xmlns="http://www.w3.org/2000/svg" width="32" height="32" viewBox="0 0 32 32">
  <defs>
    <style>
      .cls-1 {
        fill: #2f2f2f;
        fill-rule: evenodd;
      }
    </style>
  </defs>
  <path id="picture" class="cls-1" d="M426.286,732.571A3.429,3.429,0,1,0,429.714,736,3.427,3.427,0,0,0,426.286,732.571ZM441.143,728H422.857A6.866,6.866,0,0,0,416,734.857v18.286a6.529,6.529,0,0,0,.121,1.184l-0.121.119a4.173,4.173,0,0,0,.423.985A6.844,6.844,0,0,0,422.857,760h18.286a6.855,6.855,0,0,0,6.734-5.643A4.059,4.059,0,0,0,448,753.4v-18.54A6.866,6.866,0,0,0,441.143,728Zm4.571,17.44c-0.916-1.312-1.746-2.48-2.308-3.239-2.3-3.1-5.033-4.057-7.813-.494l-3.575,5.029c-2.589-2.59-5.874-2.859-8.589.245l-5.143,5.168V734.857a4.585,4.585,0,0,1,4.571-4.571h18.286a4.585,4.585,0,0,1,4.571,4.571V745.44Z" transform="translate(-416 -728)"/>
</svg>
