<svg xmlns="http://www.w3.org/2000/svg" width="32" height="32" viewBox="0 0 32 32">
  <defs>
    <style>
      .cls-1 {
        fill: #2f2f2f;
        fill-rule: evenodd;
      }
    </style>
  </defs>
  <path id="plane" class="cls-1" d="M416.183,1063.41a0.487,0.487,0,0,1-.076-0.1,0.649,0.649,0,0,1-.059-0.6l2.76-6.89-2.756-6.52a0.668,0.668,0,0,1,.05-0.61,0.624,0.624,0,0,1,.522-0.29h2.739a0.655,0.655,0,0,1,.472.22l3.161,3.79h6.449l-3.527-11.56a0.652,0.652,0,0,1,.082-0.58,0.616,0.616,0,0,1,.507-0.27h3.662a0.633,0.633,0,0,1,.515.28l7.8,12.3h6.323a3.316,3.316,0,0,1,3.189,3.28v0.26a3.316,3.316,0,0,1-.933,2.32,3.123,3.123,0,0,1-2.256.96h-6.257l-7.622,12.31a0.617,0.617,0,0,1-.519.29h-3.723a0.63,0.63,0,0,1-.5-0.26,0.673,0.673,0,0,1-.09-0.58l3.244-11.45h-6.281l-2.978,3.66a0.6,0.6,0,0,1-.478.23h-2.982a0.612,0.612,0,0,1-.438-0.19h0Z" transform="translate(-416 -1040)"/>
</svg>
