<svg xmlns="http://www.w3.org/2000/svg" width="32" height="32" viewBox="0 0 32 32">
  <defs>
    <style>
      .cls-1 {
        fill: #2f2f2f;
        fill-rule: evenodd;
      }
    </style>
  </defs>
  <path id="purse" class="cls-1" d="M291.441,1059.75a15.887,15.887,0,0,0-7.814-9.92c-0.463-.26-0.953-0.48-1.431-0.71a0.068,0.068,0,0,1,.014-0.03c0.08-.08.162-0.15,0.243-0.22a7.271,7.271,0,0,0,1.964-2.69,11.084,11.084,0,0,0,.366-1.19,2.917,2.917,0,0,0-.95-3.12,3.854,3.854,0,0,0-4.117-.54,0.217,0.217,0,0,1-.273-0.02,5.234,5.234,0,0,0-6.882-.04,0.214,0.214,0,0,1-.27.05,3.966,3.966,0,0,0-2.428-.25,3.084,3.084,0,0,0-2.659,3.38,7.086,7.086,0,0,0,1.886,4c0.219,0.23.451,0.46,0.687,0.69l-0.176.09a16.028,16.028,0,0,0-9.554,13.5,14.586,14.586,0,0,0,.407,4.86,5.954,5.954,0,0,0,5.762,4.41c6.542-.01,13.084,0,19.627-0.01a5.728,5.728,0,0,0,4.893-2.56,6.46,6.46,0,0,0,1.038-2.79A15.859,15.859,0,0,0,291.441,1059.75Zm-10.862,4a1.085,1.085,0,0,1-.666.19h-2.825v0.86a1.2,1.2,0,0,1-.3.76,0.869,0.869,0,0,1-.787.32,1.319,1.319,0,0,1-.808-0.24,1.063,1.063,0,0,1-.363-0.84v-0.86h-2.745a0.942,0.942,0,0,1-.666-0.23,0.642,0.642,0,0,1-.222-0.58,0.813,0.813,0,0,1,.262-0.63,0.935,0.935,0,0,1,.626-0.23h2.745v-1.51h-2.745a0.845,0.845,0,0,1-.646-0.25,0.885,0.885,0,0,1-.242-0.61,0.97,0.97,0,0,1,.262-0.64,0.806,0.806,0,0,1,.626-0.3h2.745l0.04-.9q-0.726-.78-1.332-1.47l-0.969-1.11-0.6-.6a2.688,2.688,0,0,1-.364-0.71,1,1,0,0,1,.162-0.93,0.741,0.741,0,0,1,.888-0.23,2.509,2.509,0,0,1,.848.49c0.107,0.14.3,0.36,0.565,0.65l1.938,2.06c0.457-.46.874-0.88,1.251-1.25,0.323-.31.646-0.62,0.969-0.92s0.552-.51.686-0.63a1.186,1.186,0,0,1,.808-0.34,0.86,0.86,0,0,1,.726.39q0.525,0.645-.4,1.5c-0.161.14-.4,0.4-0.726,0.75s-0.646.71-.969,1.06c-0.377.43-.794,0.87-1.251,1.33v0.82h2.624a1.074,1.074,0,0,1,.827.28,0.869,0.869,0,0,1,.262.62,0.95,0.95,0,0,1-.242.66,0.906,0.906,0,0,1-.807.24l-2.624.04-0.04,1.47h2.583a0.911,0.911,0,0,1,1.13.9A0.642,0.642,0,0,1,280.579,1063.75Z" transform="translate(-260 -1040)"/>
</svg>
