<svg xmlns="http://www.w3.org/2000/svg" width="32" height="32" viewBox="0 0 32 32">
  <defs>
    <style>
      .cls-1 {
        fill: #2f2f2f;
        fill-rule: evenodd;
      }
    </style>
  </defs>
  <path id="qq" class="cls-1" d="M550.485,596.324c-0.679.643-1.847-.058-2.969-1.632a17.3,17.3,0,0,1-1.859,3.666c1.587,0.575,2.606,1.47,2.606,2.482,0,1.746-3.047,3.16-6.81,3.16A10.794,10.794,0,0,1,536,602.735,10.763,10.763,0,0,1,530.55,604c-3.763,0-6.812-1.414-6.812-3.16,0-1,1.021-1.907,2.608-2.482a16.825,16.825,0,0,1-1.859-3.666c-1.122,1.562-2.288,2.275-2.969,1.632-0.93-.884-0.578-4.011.8-6.974a14.072,14.072,0,0,1,1.007-1.815c0.193-8.618,5.792-15.535,12.66-15.535h0.023c6.868,0,12.466,6.906,12.658,15.535a13.953,13.953,0,0,1,1.009,1.815c1.372,2.963,1.735,6.09.805,6.974h0Z" transform="translate(-520 -572)"/>
</svg>
