<svg xmlns="http://www.w3.org/2000/svg" width="32" height="32" viewBox="0 0 32 32">
  <defs>
    <style>
      .cls-1 {
        fill: #2f2f2f;
        fill-rule: evenodd;
      }
    </style>
  </defs>
  <path id="qr-code" class="cls-1" d="M288.008,847.092H280.86A3.961,3.961,0,0,1,277,843v-7a3.881,3.881,0,0,1,3.86-4h7.148A4.015,4.015,0,0,1,292,836.027v7.038A4.015,4.015,0,0,1,288.008,847.092Zm-3.574-10.4a2.857,2.857,0,1,0,2.814,2.857A2.836,2.836,0,0,0,284.434,836.689Zm-13.294,27.3h-7.148A4.015,4.015,0,0,1,260,859.959v-7.038A3.931,3.931,0,0,1,264,849h7a4,4,0,0,1,4,4v7A3.869,3.869,0,0,1,271.14,863.986Zm-3.574-10.4a2.858,2.858,0,1,0,2.814,2.858A2.837,2.837,0,0,0,267.566,853.582ZM271,847h-7a3.943,3.943,0,0,1-4-3.935v-7.038A4.015,4.015,0,0,1,263.992,832h7.148a3.881,3.881,0,0,1,3.86,4v7A4,4,0,0,1,271,847Zm-3.434-10.311a2.857,2.857,0,1,0,2.814,2.857A2.836,2.836,0,0,0,267.566,836.689Zm13.294,12.219h5.313v6.427h2.394v-6.383A4.018,4.018,0,0,1,292,852.935v4.634h-9.02v-2.437h-2.394v8.854A3.879,3.879,0,0,1,277,860v-7A3.961,3.961,0,0,1,280.86,848.908ZM286.173,864H282.98v-4.016h3.193V864Zm2.394-.044v-3.972H292A4.019,4.019,0,0,1,288.567,863.956Z" transform="translate(-260 -832)"/>
</svg>
