<svg xmlns="http://www.w3.org/2000/svg" width="32" height="32" viewBox="0 0 32 32">
  <defs>
    <style>
      .cls-1 {
        fill: #2f2f2f;
        fill-rule: evenodd;
      }
    </style>
  </defs>
  <path id="question" class="cls-1" d="M276,708a16,16,0,1,1,16-16A16,16,0,0,1,276,708Zm-1.068-6.986h3.139V698.3h-3.139v2.714Zm6.771-15a4.01,4.01,0,0,0-.935-1.53A4.711,4.711,0,0,0,279.1,683.4a6.726,6.726,0,0,0-2.485-.409,5.5,5.5,0,0,0-2.2.434,5.256,5.256,0,0,0-1.748,1.215,5.7,5.7,0,0,0-1.173,1.871,7.307,7.307,0,0,0-.48,2.405h2.665a6.419,6.419,0,0,1,.282-1.587,4.25,4.25,0,0,1,.608-1.233,2.753,2.753,0,0,1,.9-0.8,2.342,2.342,0,0,1,1.147-.285,2.918,2.918,0,0,1,1.165.216,2.3,2.3,0,0,1,.827.589,2.421,2.421,0,0,1,.487.874,3.532,3.532,0,0,1,.16,1.072,2.688,2.688,0,0,1-.173.979,3.732,3.732,0,0,1-.455.837,5.67,5.67,0,0,1-.647.744q-0.365.353-.737,0.7-0.435.4-.845,0.8a7.221,7.221,0,0,0-.737.843,4.162,4.162,0,0,0-.525.936,2.9,2.9,0,0,0-.2,1.091v1.45h3.139v-1.351a2.768,2.768,0,0,1,.147-0.917,3.577,3.577,0,0,1,.4-0.8,6.084,6.084,0,0,1,.563-0.725q0.313-.346.647-0.682,0.4-.42.788-0.849a6.965,6.965,0,0,0,.7-0.9,4.661,4.661,0,0,0,.494-1,3.483,3.483,0,0,0,.185-1.159A5.5,5.5,0,0,0,281.7,686.01Z" transform="translate(-260 -676)"/>
</svg>
