<svg xmlns="http://www.w3.org/2000/svg" width="32" height="32" viewBox="0 0 32 32">
  <defs>
    <style>
      .cls-1 {
        fill: #2f2f2f;
        fill-rule: evenodd;
      }
    </style>
  </defs>
  <path id="refresh" class="cls-1" d="M290.7,585.517H281.3a0.208,0.208,0,0,1-.044,0A1.29,1.29,0,0,1,280,584.277h0a1.134,1.134,0,0,1,.228-0.657l0.088-.105h0l0.088-.084,2.981-2.9h0A10.6,10.6,0,0,0,280,578.345l0.26-.066h0l-0.26.066a10.645,10.645,0,0,0-13.917,6.147h0v0.036l-0.2.569a1,1,0,0,1-.73.35H261.11a0.889,0.889,0,0,1-.242-0.038,0.909,0.909,0,0,1-.693-0.881v-0.074a2.58,2.58,0,0,1,.3-1.1A16.18,16.18,0,0,1,276.035,572a17.486,17.486,0,0,1,8.169,1.78h0a11.9,11.9,0,0,1,3.373,2.609h0.051v0.01l2.143-2.086v0a1.232,1.232,0,0,1,.969-0.525A1.281,1.281,0,0,1,292,575.026a0.1,0.1,0,0,1,0,.035v9.173A1.3,1.3,0,0,1,290.7,585.517ZM261.3,590.425h9.327a0.111,0.111,0,0,1,.036,0,1.283,1.283,0,0,1,1.264,1.236,1.213,1.213,0,0,1-.535.952l0,0-2.927,2.787,0.062,0.121,0.031-.03a10.643,10.643,0,0,0,7.477,2.917,10.52,10.52,0,0,0,9.955-6.979h0l0.207-.642h0l0.336-.276h0a0.865,0.865,0,0,1,.392-0.092h4.054a0.939,0.939,0,0,1,.39.092,0.918,0.918,0,0,1,.544.826V591.4a5.7,5.7,0,0,1-.282,1.082A16.213,16.213,0,0,1,276.035,604c-5.055,0-8.859-1.663-11.309-4.761l0,0-0.092-.067-2.518,2.66-0.085.089a1.222,1.222,0,0,1-.777.31A1.289,1.289,0,0,1,260,600.99a0.347,0.347,0,0,1,0-.043v-9.241A1.292,1.292,0,0,1,261.3,590.425Zm25.229,0.091-0.336.276A0.621,0.621,0,0,1,286.533,590.516Z" transform="translate(-260 -572)"/>
</svg>
