<svg xmlns="http://www.w3.org/2000/svg" width="32" height="32" viewBox="0 0 32 32">
  <defs>
    <style>
      .cls-1 {
        fill: #2f2f2f;
        fill-rule: evenodd;
      }
    </style>
  </defs>
  <path id="rmb" class="cls-1" d="M276,988a16,16,0,1,1-16,16A16,16,0,0,1,276,988Zm-1.887,21.12H270.2a1.087,1.087,0,0,1-.842-0.47,2.019,2.019,0,0,1-.355-0.93,1.5,1.5,0,0,1,.355-0.84,1.166,1.166,0,0,1,.842-0.37h3.916v-1.3l-3.916-.02a1.181,1.181,0,0,1-.842-0.39,1.624,1.624,0,0,1-.355-0.88,1.466,1.466,0,0,1,.355-0.84,1.166,1.166,0,0,1,.842-0.37h2.922l-2.719-4.854a3.053,3.053,0,0,1-.385-0.627,1.714,1.714,0,0,1-.163-0.832,1.944,1.944,0,0,1,.406-0.935,1.738,1.738,0,0,1,1.136-.462,1.615,1.615,0,0,1,.873.339,2.993,2.993,0,0,1,.629.647l3.084,5.714,3.388-5.755a2.461,2.461,0,0,1,.629-0.616,1.935,1.935,0,0,1,.872-0.329,3.35,3.35,0,0,1,.558.082,1.223,1.223,0,0,1,.447.206,1.135,1.135,0,0,1,.325.411,2.346,2.346,0,0,1,.192.7,1.836,1.836,0,0,1-.406,1.13l-3.144,5.183h2.982a1.179,1.179,0,0,1,.832.37,1.333,1.333,0,0,1,.345.84,1.52,1.52,0,0,1-.355.9,1.139,1.139,0,0,1-.842.41l-3.875.02v1.26h3.895a1.1,1.1,0,0,1,.832.41,1.32,1.32,0,0,1,0,1.78,1.2,1.2,0,0,1-.832.4l-3.895-.02v2.17a1.654,1.654,0,0,1-1.887,1.75,2.039,2.039,0,0,1-1.39-.43,1.774,1.774,0,0,1-.538-1.32v-2.13h0Z" transform="translate(-260 -988)"/>
</svg>
