<svg xmlns="http://www.w3.org/2000/svg" width="32" height="32" viewBox="0 0 32 32">
  <defs>
    <style>
      .cls-1 {
        fill: #2f2f2f;
        fill-rule: evenodd;
      }
    </style>
  </defs>
  <path id="sad" class="cls-1" d="M380,812a16.124,16.124,0,0,1-4.626-.68c-0.958-.391-1.871-0.825-2.7-1.252a20.225,20.225,0,0,1-4.175-2.938A16.01,16.01,0,1,1,380,812Zm-5-22a2,2,0,1,0,2,2A2,2,0,0,0,375,790Zm10,0a2,2,0,1,0,2,2A2,2,0,0,0,385,790Zm-4.93,8c-8.389,0-8.07,4.889-8.07,4.889S372.5,804,373.111,804c0,0,1.516-4,6.809-4,6.348,0,7.08,4,7.08,4a1.714,1.714,0,0,0,1-1S387.977,798,380.07,798Z" transform="translate(-364 -780)"/>
</svg>
