<svg xmlns="http://www.w3.org/2000/svg" width="32" height="32" viewBox="0 0 32 32">
  <defs>
    <style>
      .cls-1 {
        fill: #2f2f2f;
        fill-rule: evenodd;
      }
    </style>
  </defs>
  <path id="safari" class="cls-1" d="M380,1092a16,16,0,1,0,16,16A16,16,0,0,0,380,1092Zm13.95,14.77-0.031-.33C393.925,1106.56,393.938,1106.66,393.95,1106.77Zm-2.188-6.37-0.225-.34C391.612,1100.17,391.687,1100.29,391.762,1100.4Zm-0.868-1.19-0.137-.17A1.357,1.357,0,0,1,390.894,1099.21Zm-1.938-1.97-0.169-.14C388.85,1097.15,388.9,1097.19,388.956,1097.24Zm-1.018-.78-0.337-.22C387.714,1096.31,387.826,1096.39,387.938,1096.46Zm-6.382-2.37-0.337-.03A1.911,1.911,0,0,1,381.556,1094.09Zm-2.781-.04-0.338.03Zm-6.375,2.19-0.338.22C372.175,1096.39,372.287,1096.31,372.4,1096.24Zm-1.194.87-0.162.13A1.844,1.844,0,0,1,371.206,1097.11Zm-1.969,1.93-0.138.17A1.46,1.46,0,0,0,369.237,1099.04Zm-0.774,1.02-0.225.34C368.313,1100.29,368.388,1100.18,368.463,1100.06Zm-2.376,6.38-0.031.34C366.062,1106.67,366.075,1106.56,366.087,1106.44Zm-0.037,2.78,0.031,0.34C366.075,1109.45,366.062,1109.34,366.05,1109.22Zm2.187,6.37,0.225,0.34C368.387,1115.82,368.312,1115.71,368.237,1115.59Zm0.263,0.4,2.494-1.67-0.275-.42-2.494,1.67a13.932,13.932,0,0,1-2.125-5.95l1.494-.15-0.05-.5-1.494.15c-0.025-.29-0.038-0.58-0.044-0.88h3v-0.5h-3c0.006-.29.019-0.58,0.044-0.87l1.494,0.14,0.05-.5-1.494-.14a13.845,13.845,0,0,1,2.131-5.95l2.494,1.67,0.275-.42-2.5-1.66c0.169-.23.338-0.47,0.519-0.7l1.156,0.95,0.319-.39-1.156-.95c0.188-.22.388-0.43,0.588-0.65l2.119,2.12,0.356-.35-2.119-2.12c0.213-.2.425-0.4,0.644-0.59l0.95,1.16,0.387-.32-0.95-1.15c0.231-.18.463-0.36,0.7-0.53l1.669,2.5,0.419-.28-1.669-2.49a13.909,13.909,0,0,1,5.95-2.13l0.15,1.5,0.5-.05-0.15-1.5c0.287-.02.581-0.04,0.875-0.04v3h0.5v-3c0.294,0,.581.02,0.875,0.04l-0.144,1.5,0.5,0.05,0.144-1.5a13.909,13.909,0,0,1,5.95,2.13l-1.669,2.5,0.419,0.27L388,1096.5c0.238,0.17.475,0.34,0.7,0.52l-0.95,1.15,0.387,0.32,0.95-1.15c0.225,0.18.438,0.38,0.65,0.58l-0.8.79L378,1106l-7.294,10.94-0.781.78c-0.2-.21-0.4-0.43-0.588-0.65l1.156-.95-0.319-.38-1.156.95c-0.181-.23-0.35-0.47-0.519-0.7h0Zm0.737,0.97c-0.044-.06-0.088-0.11-0.131-0.17Zm1.807,1.8,0.162,0.13A1.844,1.844,0,0,1,371.044,1118.76Zm1.019,0.77,0.338,0.23C372.288,1119.69,372.176,1119.61,372.063,1119.53Zm6.381,2.38,0.338,0.03C378.669,1121.94,378.557,1121.92,378.444,1121.91Zm2.781,0.04,0.331-.03C381.443,1121.92,381.337,1121.94,381.225,1121.95Zm6.375-2.19,0.337-.22C387.824,1119.61,387.712,1119.69,387.6,1119.76Zm1.194-.87,0.169-.13A1.912,1.912,0,0,1,388.794,1118.89Zm1.093-.98,0.025-.02C389.906,1117.89,389.893,1117.91,389.887,1117.91Zm0.875-.95,0.137-.17A1.357,1.357,0,0,0,390.762,1116.96Zm0.219-.27-1.156-.95-0.319.38,1.156,0.95c-0.188.23-.387,0.44-0.587,0.65l-2.119-2.11-0.356.35,2.119,2.12c-0.212.2-.425,0.4-0.644,0.59l-0.95-1.17-0.387.32,0.95,1.16c-0.231.18-.462,0.36-0.7,0.52l-1.669-2.49-0.419.28,1.669,2.49a13.9,13.9,0,0,1-5.95,2.12l-0.15-1.49-0.5.05,0.15,1.49c-0.288.03-.581,0.04-0.875,0.05v-3h-0.5v3c-0.294-.01-0.581-0.02-0.875-0.05l0.144-1.49-0.5-.05-0.144,1.49a13.909,13.909,0,0,1-5.95-2.13l1.669-2.49-0.419-.28-1.656,2.5c-0.237-.17-0.475-0.34-0.7-0.52l0.95-1.16-0.388-.32-0.95,1.16c-0.225-.19-0.438-0.39-0.65-0.59l0.787-.78L382,1110l7.294-10.94,0.781-.78c0.2,0.21.4,0.42,0.587,0.64l-1.156.95,0.319,0.39,1.156-.95c0.181,0.23.356,0.46,0.525,0.7l-2.494,1.67,0.275,0.42,2.494-1.67a13.885,13.885,0,0,1,2.125,5.95l-1.494.15,0.05,0.5,1.494-.15c0.025,0.29.038,0.58,0.044,0.87h-3v0.5h3c-0.006.3-.019,0.59-0.044,0.88l-1.494-.14-0.05.5,1.494,0.14a13.94,13.94,0,0,1-2.131,5.95l-2.494-1.67-0.275.42L391.5,1116c-0.163.22-.337,0.45-0.519,0.69h0Zm2.969-7.47c-0.012.11-.019,0.22-0.031,0.34Zm-2.188,6.38c-0.075.11-.15,0.22-0.225,0.34Zm-14.245-21.38,0.585,2.94-0.49.1-0.585-2.94Zm4.972,27.56-0.585-2.94,0.49-.1,0.585,2.94Zm-6.313-27.25,0.436,1.43-0.478.15-0.436-1.44Zm7.65,26.93-0.436-1.43,0.478-.15,0.436,1.44Zm-8.951-26.49,1.148,2.77-0.462.19-1.148-2.77Zm10.254,26.06-1.148-2.77,0.462-.19,1.148,2.77Zm-11.953-25.26,0.441-.24,0.707,1.33-0.441.23Zm13.64,24.46-0.441.23-0.707-1.32,0.441-.24Zm-19.047-19.05,1.323,0.71-0.236.44-1.323-.71Zm24.457,13.64-1.323-.71,0.236-.44,1.323,0.71Zm-22.482-10.8-2.772-1.15,0.191-.46,2.772,1.15Zm20.516,7.96,2.772,1.15-0.191.46-2.772-1.15Zm-23.587-8.28,1.436,0.43-0.145.48-1.436-.43Zm26.649,8.6-1.436-.43,0.145-.48,1.436,0.43Zm-27.007-7.28,2.942,0.59-0.1.49-2.942-.59Zm27.364,5.96-2.942-.59,0.1-.49,2.942,0.59Zm-27.461-.49,2.942-.59,0.1,0.49-2.942.59Zm27.558-4.98-2.942.59-0.1-.49,2.942-.59Zm-27.246,6.32,1.435-.44,0.145,0.48-1.435.44Zm26.938-7.65-1.435.43-0.145-.47,1.435-.44Zm-26.307,9.41-0.191-.46,2.772-1.15,0.191,0.46Zm25.676-11.18,0.191,0.46-2.772,1.15-0.191-.46Zm-25.061,12.41-0.236-.44,1.323-.71,0.236,0.44Zm24.457-13.64,0.236,0.44-1.323.71-0.236-.44Zm-18.612,19.28-0.441-.23,0.707-1.33,0.441,0.24Zm12.756-24.93,0.441,0.24-0.707,1.32-0.441-.23Zm-11.962,25.31,1.148-2.78,0.462,0.2-1.148,2.77Zm11.175-25.68-1.148,2.77-0.462-.19,1.148-2.77Zm-9.414,26.31-0.478-.15,0.435-1.43,0.478,0.14Zm7.647-26.94,0.479,0.14-0.435,1.44-0.479-.15Zm-6.308,27.25-0.49-.1,0.585-2.94,0.49,0.09Zm4.97-27.56,0.49,0.1-0.585,2.94-0.49-.1Z" transform="translate(-364 -1092)"/>
</svg>
