<svg xmlns="http://www.w3.org/2000/svg" width="32" height="32" viewBox="0 0 32 32">
  <defs>
    <style>
      .cls-1 {
        fill: #2f2f2f;
        fill-rule: evenodd;
      }
    </style>
  </defs>
  <path id="save" class="cls-1" d="M445.44,448H418.56a2.56,2.56,0,0,1-2.56-2.56V418.56a2.56,2.56,0,0,1,2.56-2.56h3.84v9.316h19.2V416h3.84a2.56,2.56,0,0,1,2.56,2.56v26.88a2.56,2.56,0,0,1-2.56,2.56h0Zm-2.916-15.218a2.56,2.56,0,0,0-2.56-2.56L424,430.208a2.56,2.56,0,0,0-2.56,2.56v9.6a2.56,2.56,0,0,0,2.56,2.56h16a2.56,2.56,0,0,0,2.56-2.56l-0.036-9.586h0Zm-5.148,9.394-10.78-.007a2.1,2.1,0,0,1-2.134-2.133v-4.907A2.1,2.1,0,0,1,426.6,433H437.4a2.122,2.122,0,0,1,2.148,2.14V440a2.176,2.176,0,0,1-2.176,2.176h0Zm0.953-20.772v0.143h-0.007a2.131,2.131,0,0,1-4.253,0h-0.007v-3.556h0.007a2.131,2.131,0,0,1,4.253,0h0.007V421.4h0Z" transform="translate(-416 -416)"/>
</svg>
