<svg xmlns="http://www.w3.org/2000/svg" width="31.36" height="31.39" viewBox="0 0 32 32.031">
  <defs>
    <style>
      .cls-1 {
        fill: #2f2f2f;
        fill-rule: evenodd;
      }
    </style>
  </defs>
  <path id="send" class="cls-1" d="M389,416.076a2.392,2.392,0,0,1,1.678,1.8l5.22,26.929a1.356,1.356,0,0,1-.168,1.316,1.554,1.554,0,0,1-1.662.266L383,442.211l-4.8,5.335a1.357,1.357,0,0,1-.959.452,1.177,1.177,0,0,1-.573-0.545l-1.929-7.068-10.173-2.8s-0.363.133-.532-0.715a1.28,1.28,0,0,1,.29-1.236l21.635-18.5a3.432,3.432,0,0,1,3.04-1.053h0Zm-0.643,2.028-10.708,20.2a5.464,5.464,0,0,0-.648,1.512,2.79,2.79,0,0,0,.121,1.453l0.412,2.567s0.158,1.025.561,1.051a1.5,1.5,0,0,0,.855-0.732l2.559-3.383a10.361,10.361,0,0,0,1.057-1.606c0.28-.642.5-1.262,0.5-1.262l5.291-19.8h0Z" transform="translate(-364 -415.969)"/>
</svg>
