<svg xmlns="http://www.w3.org/2000/svg" width="32" height="32" viewBox="0 0 32 32">
  <defs>
    <style>
      .cls-1 {
        fill: #2f2f2f;
        fill-rule: evenodd;
      }
    </style>
  </defs>
  <path id="set" class="cls-1" d="M446.016,168.97h0l-2.567-.57a11.83,11.83,0,0,0-.762-1.841l1.389-2.312a2.3,2.3,0,0,0,0-2.83L442.659,160a1.951,1.951,0,0,0-1.411-.544,2.664,2.664,0,0,0-1.482.457l-2.252,1.434a12.216,12.216,0,0,0-1.828-.769l-0.577-2.6A2.347,2.347,0,0,0,433,156h-2a2.294,2.294,0,0,0-2,2l-0.642,2.566a11.935,11.935,0,0,0-1.947.818l-2.308-1.468a2.666,2.666,0,0,0-1.484-.457,1.957,1.957,0,0,0-1.411.544l-1.414,1.414a2.3,2.3,0,0,0,0,2.83l1.461,2.434a11.971,11.971,0,0,0-.7,1.719l-2.566.57A2.347,2.347,0,0,0,416,171.08v2a2.3,2.3,0,0,0,2,2l2.6,0.648a11.787,11.787,0,0,0,.658,1.594l-1.462,2.437a2.3,2.3,0,0,0,0,2.828L421.209,184a1.956,1.956,0,0,0,1.411.546,2.662,2.662,0,0,0,1.483-.457l2.313-1.474a11.826,11.826,0,0,0,1.959.824l0.641,2.56a2.293,2.293,0,0,0,2,2h2a2.347,2.347,0,0,0,2.109-1.984l0.576-2.6a11.871,11.871,0,0,0,1.808-.758l2.257,1.437a2.659,2.659,0,0,0,1.482.457,1.956,1.956,0,0,0,1.411-.545l1.416-1.415a2.3,2.3,0,0,0,0-2.828l-1.391-2.315a12.1,12.1,0,0,0,.717-1.716l2.6-.648a2.3,2.3,0,0,0,2-2v-2A2.347,2.347,0,0,0,446.016,168.97Zm-13.988,7.867a4.824,4.824,0,1,1,4.838-4.825A4.839,4.839,0,0,1,432.028,176.837Z" transform="translate(-416 -156)"/>
</svg>
