<svg xmlns="http://www.w3.org/2000/svg" width="31.125" height="31.094" viewBox="0 0 31.125 31.094">
  <defs>
    <style>
      .cls-1 {
        fill: #2f2f2f;
        fill-rule: evenodd;
      }
    </style>
  </defs>
  <path id="sex-female" class="cls-1" d="M175,286a12.919,12.919,0,0,1-6.848-1.965l-1.924,1.924,0.989,1.06a2.54,2.54,0,0,1,.234,3.39,2.15,2.15,0,0,1-3.162-.251l-1.091-1.169-1.212,1.212a3,3,0,1,1-4.242-4.243L159.1,284.6l-1.232-1.32a2.824,2.824,0,0,1-.26-3.767,1.911,1.911,0,0,1,2.811.223l1.711,1.834,1.79-1.79A12.99,12.99,0,1,1,175,286Z" transform="translate(-156.875 -260)"/>
</svg>
