<svg xmlns="http://www.w3.org/2000/svg" width="32" height="32" viewBox="0 0 32 32">
  <defs>
    <style>
      .cls-1 {
        fill: #2f2f2f;
        fill-rule: evenodd;
      }
    </style>
  </defs>
  <path id="sex" class="cls-1" d="M84,283.5a8.5,8.5,0,1,1-11-8.125v-7.581a2.038,2.038,0,0,1-2.315-.487,1.89,1.89,0,0,1-.269-2.655L74,261a0.655,0.655,0,0,1,.115-0.068,1.5,1.5,0,0,1,2.77,0A0.644,0.644,0,0,1,77,261l3.584,3.639a1.9,1.9,0,0,1-.269,2.665,2.031,2.031,0,0,1-2.315.489v7.582A8.5,8.5,0,0,1,84,283.5Zm-21-6.875V281h0.5a2.5,2.5,0,1,1,0,5H63v3.5a2.5,2.5,0,0,1-5,0V286H57.5a2.5,2.5,0,0,1,0-5H58v-4.375A8.5,8.5,0,1,1,63,276.625Z" transform="translate(-52 -260)"/>
</svg>
