<svg xmlns="http://www.w3.org/2000/svg" width="32" height="32" viewBox="0 0 32 32">
  <defs>
    <style>
      .cls-1 {
        fill: #2f2f2f;
        fill-rule: evenodd;
      }
    </style>
  </defs>
  <path id="shield" class="cls-1" d="M391.11,700.53c-3.932,5.3-11.086,7.47-11.086,7.47a21.731,21.731,0,0,1-11.134-7.47c-2.69-3.3-2.89-8.626-2.89-8.626V680.1s12.508-4.1,14.024-4.1S394,680.145,394,680.145V691.9S393.633,697.129,391.11,700.53Zm-3.647-14.5a1.359,1.359,0,0,0-1.866-.256l-7.731,7.732-3.574-3.575c-0.262-.262-0.95,0-1.536.586s-0.848,1.274-.585,1.536l4.986,4.986a1.222,1.222,0,0,0,1.368-.446,0.975,0.975,0,0,0,.746-0.25l8.448-8.448A1.358,1.358,0,0,0,387.463,686.032Z" transform="translate(-364 -676)"/>
</svg>
