<svg xmlns="http://www.w3.org/2000/svg" width="32" height="32" viewBox="0 0 32 32">
  <defs>
    <style>
      .cls-1 {
        fill: #2f2f2f;
        fill-rule: evenodd;
      }
    </style>
  </defs>
  <path id="shopping-cart" class="cls-1" d="M291.894,482.182l-1.49,7.356A4.566,4.566,0,0,1,285.988,493h-13a4.422,4.422,0,0,1-1.155-.172,1.609,1.609,0,0,1-.257.117c-1.125.331-2.358-.714-2.753-2.334L264.285,472h-2.063A2.222,2.222,0,0,1,260,469.778,1.778,1.778,0,0,1,261.778,468H265a1.966,1.966,0,0,1,.429.049c1.205-.231,2.478.891,2.9,2.616l1.576,6.466a4.115,4.115,0,0,1,1.022-.131H288.05C290.752,477,292.452,479.424,291.894,482.182ZM289,496.5a3.5,3.5,0,1,1-3.5-3.5A3.5,3.5,0,0,1,289,496.5Zm-11,0a3.5,3.5,0,1,1-3.5-3.5A3.5,3.5,0,0,1,278,496.5Z" transform="translate(-260 -468)"/>
</svg>
