<svg xmlns="http://www.w3.org/2000/svg" width="32" height="32" viewBox="0 0 32 32">
  <defs>
    <style>
      .cls-1 {
        fill: #2f2f2f;
        fill-rule: evenodd;
      }
    </style>
  </defs>
  <path id="smile" class="cls-1" d="M328,780.01a15.987,15.987,0,0,0-11.5,27.117,20.225,20.225,0,0,0,4.175,2.938c0.828,0.427,1.741.861,2.7,1.252A16,16,0,1,0,328,780.01h0Zm-8.724,19.216c9.071,7.652,17.448,0,17.448,0s0,7.917-8.724,7.917-8.724-7.917-8.724-7.917h0ZM322.5,789a2.5,2.5,0,1,1-2.5,2.5A2.5,2.5,0,0,1,322.5,789Zm11,0a2.5,2.5,0,1,1-2.5,2.5A2.5,2.5,0,0,1,333.5,789Z" transform="translate(-312 -780)"/>
</svg>
