<svg xmlns="http://www.w3.org/2000/svg" width="32" height="32" viewBox="0 0 32 32">
  <defs>
    <style>
      .cls-1 {
        fill: #2f2f2f;
        fill-rule: evenodd;
      }
    </style>
  </defs>
  <path id="star" class="cls-1" d="M447.507,275.063a2.052,2.052,0,0,1-.29.51,6.6,6.6,0,0,1-1.756,1.7s-2.32,1.617-2.642,1.869a3.093,3.093,0,0,0-.674,2.707,27.506,27.506,0,0,0,.825,4.233,5.467,5.467,0,0,1,.333,1.474,3.384,3.384,0,0,1-.89,3,3.722,3.722,0,0,1-3.66,1.377l-0.527-.191-0.106-.039a8.8,8.8,0,0,1-2.069-1.242l-2.517-2.02c-0.876-.563-1.694-0.245-2.654.144a24.455,24.455,0,0,0-3.565,2.15,7.944,7.944,0,0,1-1.213.789,3.513,3.513,0,0,1-3.043.248,3.7,3.7,0,0,1-2.36-3.192,5.032,5.032,0,0,1-.027-0.624,9.412,9.412,0,0,1,.458-2.416l0.922-2.739a2.994,2.994,0,0,0-.772-2.985,19.18,19.18,0,0,0-3.035-2.946c-0.734-.635-0.976-0.969-1.082-1.007a4.2,4.2,0,0,1-1.162-2.88,3.756,3.756,0,0,1,2.2-3.381,3.177,3.177,0,0,1,.533-0.176,7.211,7.211,0,0,1,2.337-.259l3.181,0.048a2.664,2.664,0,0,0,2.109-1.694,26.953,26.953,0,0,0,1.644-3.83,8.662,8.662,0,0,1,.585-1.386,4.076,4.076,0,0,1,2.257-2.132,3.488,3.488,0,0,1,3.767,1.121,4.785,4.785,0,0,0,.454.411,9.392,9.392,0,0,1,.993,2.327l0.74,2.727a3.538,3.538,0,0,0,2.412,1.982,23.473,23.473,0,0,0,3.988.463c1.024,0.126,1.377.131,1.483,0.169a3.634,3.634,0,0,1,2.665,1.582A4.008,4.008,0,0,1,447.507,275.063Z" transform="translate(-416 -260)"/>
</svg>
