<svg xmlns="http://www.w3.org/2000/svg" width="31.39" height="31.39" viewBox="0 0 32.031 32.031">
  <defs>
    <style>
      .cls-1 {
        fill: #2f2f2f;
        fill-rule: evenodd;
      }
    </style>
  </defs>
  <path id="tag" class="cls-1" d="M419.436,780A3.443,3.443,0,0,0,416,783.434v8.021a9.55,9.55,0,0,0,2.433,5.864l13.675,13.675a3.439,3.439,0,0,0,4.856,0L447,800.964a3.446,3.446,0,0,0,0-4.859L433.319,782.43a9.546,9.546,0,0,0-5.864-2.43h-8.019ZM424,791.427A3.428,3.428,0,1,1,427.427,788,3.428,3.428,0,0,1,424,791.427h0Z" transform="translate(-416 -780)"/>
</svg>
