<svg xmlns="http://www.w3.org/2000/svg" width="31.39" height="32" viewBox="0 0 32.031 32.653">
  <defs>
    <style>
      .cls-1 {
        fill: #2f2f2f;
        fill-rule: evenodd;
      }
    </style>
  </defs>
  <path id="tel" class="cls-1" d="M289.532,543.843C289.532,549,287.206,549,276,549s-13.532,0-13.532-5.157c0-5.587,6.132-16.76,13.532-16.76s13.532,11.173,13.532,16.76h0ZM276,529.446a5.8,5.8,0,1,0,5.709,5.8,5.733,5.733,0,0,0-5.709-5.8h0Zm-11.84,4.3c2.326-3.868,6.343-7.951,11.84-7.951s9.937,4.513,11.84,7.951a2.1,2.1,0,0,0,3.806,0C292.28,532.669,293.972,523,276,523s-16.28,9.884-15.646,10.744a2.326,2.326,0,0,0,3.806,0h0Z" transform="translate(-260 -519.673)"/>
</svg>
