<svg xmlns="http://www.w3.org/2000/svg" width="32" height="32" viewBox="0 0 32 32">
  <defs>
    <style>
      .cls-1 {
        fill: #2f2f2f;
        fill-rule: evenodd;
      }
    </style>
  </defs>
  <path id="time" class="cls-1" d="M276,396a16,16,0,1,1,16-16A16,16,0,0,1,276,396Zm8.667-17H277v-9.333A1.667,1.667,0,0,0,275.333,368,1.333,1.333,0,0,0,274,369.333V380.5a1.5,1.5,0,0,0,1.5,1.5h8.833A1.667,1.667,0,0,0,286,380.333,1.333,1.333,0,0,0,284.667,379Z" transform="translate(-260 -364)"/>
</svg>
