<svg xmlns="http://www.w3.org/2000/svg" width="32" height="32" viewBox="0 0 32 32">
  <defs>
    <style>
      .cls-1 {
        fill: #2f2f2f;
        fill-rule: evenodd;
      }
    </style>
  </defs>
  <path id="truck" class="cls-1" d="M393.333,1064.27a2.675,2.675,0,0,0,2.667-2.69V1044.7a2.684,2.684,0,0,0-2.667-2.7H378.667a2.684,2.684,0,0,0-2.667,2.7v2.7h-4.053a3.186,3.186,0,0,0-2.26.93l-3.373,3.43a3.384,3.384,0,0,0-.981,2.39v6.78a1.69,1.69,0,0,0-1.333,1.66,1.673,1.673,0,0,0,1.667,1.68h2.346a4.994,4.994,0,0,0,9.974,0h4.686a5,5,0,0,0,9.98,0h0.68Zm-18.666-.33a1.667,1.667,0,1,1-1.667-1.69A1.673,1.673,0,0,1,374.667,1063.94Zm14.666,0a1.667,1.667,0,1,1-1.666-1.69A1.672,1.672,0,0,1,389.333,1063.94Zm-20.666-7.77v-1.7a1.905,1.905,0,0,1,.766-1.5l1.434-1.45a1.864,1.864,0,0,1,1.453-.74H376v5.39h-7.333Z" transform="translate(-364 -1039.5)"/>
</svg>
