<svg xmlns="http://www.w3.org/2000/svg" width="32" height="32" viewBox="0 0 32 32">
  <defs>
    <style>
      .cls-1 {
        fill: #2f2f2f;
        fill-rule: evenodd;
      }
    </style>
  </defs>
  <path id="upload" class="cls-1" d="M396,535.178A5.907,5.907,0,0,1,390.011,541a6.145,6.145,0,0,1-.819-0.054h-0.826l-3.054-3.159c-4.279-3.754-4.447-3.676-8.6,0l-3.017,3.159h-2.892a6.145,6.145,0,0,1-.819.054,5.806,5.806,0,0,1-1.638-11.423,5.937,5.937,0,0,1,5.934-5.029,6.1,6.1,0,0,1,2.886.719A8.418,8.418,0,0,1,384.544,521a8.27,8.27,0,0,1,8.384,8.15,7.915,7.915,0,0,1-.053.915A5.8,5.8,0,0,1,396,535.178Zm-15.8,3.277a1.452,1.452,0,0,1,2.119,0l4.238,4.428a1.616,1.616,0,0,1,0,2.214,1.452,1.452,0,0,1-2.119,0l-1.5-1.565v4.626h-0.008a1.855,1.855,0,0,1-3.71,0H379.2v-4.223l-1.642,1.716a1.454,1.454,0,0,1-2.119,0,1.616,1.616,0,0,1,0-2.214Z" transform="translate(-364 -519.5)"/>
</svg>
