<svg xmlns="http://www.w3.org/2000/svg" width="31.25" height="31.75" viewBox="0 0 31.25 31.75">
  <defs>
    <style>
      .cls-1 {
        fill: #2f2f2f;
        fill-rule: evenodd;
      }
    </style>
  </defs>
  <path id="user-del" class="cls-1" d="M186.7,183.59a6.973,6.973,0,0,1-1.519,2.157,7.255,7.255,0,0,1-2.238,1.464,6.927,6.927,0,0,1-2.717.539,7.009,7.009,0,0,1-2.749-.539,7.255,7.255,0,0,1-2.238-1.464,6.986,6.986,0,0,1-1.518-2.157,6.341,6.341,0,0,1-.56-2.651,6.262,6.262,0,0,1,.56-2.619,6.979,6.979,0,0,1,1.518-2.158,7.255,7.255,0,0,1,2.238-1.464,7.009,7.009,0,0,1,2.749-.539,6.927,6.927,0,0,1,2.717.539,7.255,7.255,0,0,1,2.238,1.464,6.965,6.965,0,0,1,1.519,2.158,6.261,6.261,0,0,1,.559,2.619A6.34,6.34,0,0,1,186.7,183.59Zm-2.989-4.716a0.944,0.944,0,0,0,0-1.356,1.032,1.032,0,0,0-1.407,0l-2.11,2.034-2.142-2.034a1.031,1.031,0,0,0-1.406,0,0.942,0.942,0,0,0,0,1.356l2.11,2.065-2.11,2.034a0.942,0.942,0,0,0,0,1.356,1.028,1.028,0,0,0,1.406,0l2.142-2.034,2.11,2.034a1.029,1.029,0,0,0,1.407,0,0.944,0.944,0,0,0,0-1.356l-2.11-2.034Zm-13.132-5.919a8.478,8.478,0,1,1,8.447-8.477A8.462,8.462,0,0,1,170.574,172.955Zm0,2.825c0.312,0,.624-0.014.932-0.039a9.948,9.948,0,0,0-.668,9.259H156c0-3.065,2.328-9.775,7.54-11.7A11.193,11.193,0,0,0,170.574,175.78Z" transform="translate(-156 -156)"/>
</svg>
