<svg xmlns="http://www.w3.org/2000/svg" width="31.094" height="31.844" viewBox="0 0 31.094 31.844">
  <defs>
    <style>
      .cls-1 {
        fill: #2f2f2f;
        fill-rule: evenodd;
      }
    </style>
  </defs>
  <path id="user-add" class="cls-1" d="M134.562,183.444a7.2,7.2,0,0,1-3.865,3.865,7.237,7.237,0,0,1-2.618.547,6.957,6.957,0,0,1-2.6-.451,6.357,6.357,0,0,1-2.27-1.479,6.256,6.256,0,0,1-1.456-2.248,6.958,6.958,0,0,1-.452-2.6,7.253,7.253,0,0,1,.547-2.617,7.023,7.023,0,0,1,1.563-2.326,6.925,6.925,0,0,1,2.3-1.54,7.262,7.262,0,0,1,2.618-.547,6.958,6.958,0,0,1,2.6.452,6.269,6.269,0,0,1,2.248,1.456,6.357,6.357,0,0,1,1.479,2.27,6.957,6.957,0,0,1,.451,2.6A7.237,7.237,0,0,1,134.562,183.444Zm-1.771-3.263a0.906,0.906,0,0,0-.683-0.276l-2.93.053,0.032-2.951a0.943,0.943,0,0,0-.959-0.959,1.032,1.032,0,0,0-1,.994l-0.053,2.93-2.953.077a1.03,1.03,0,0,0-1,.994,0.943,0.943,0,0,0,.959.959l2.952-.032-0.053,2.931a0.941,0.941,0,0,0,.958.958,1.03,1.03,0,0,0,1-.994l0.076-2.953,2.93-.054a1.03,1.03,0,0,0,1-.994A0.9,0.9,0,0,0,132.791,180.181Zm-14.218-7.226a8.478,8.478,0,1,1,8.448-8.477A8.462,8.462,0,0,1,118.573,172.955Zm0,2.825c0.313,0,.625-0.014.933-0.039a9.948,9.948,0,0,0-.668,9.259H104c0-3.065,2.328-9.775,7.539-11.7A11.2,11.2,0,0,0,118.573,175.78Z" transform="translate(-104 -156)"/>
</svg>
