<svg xmlns="http://www.w3.org/2000/svg" width="31.997" height="32" viewBox="0 0 33 33.003">
  <defs>
    <style>
      .cls-1 {
        fill: #2f2f2f;
        fill-rule: evenodd;
      }
    </style>
  </defs>
  <path id="video" class="cls-1" d="M549.916,288H523.083A3.11,3.11,0,0,1,520,284.858V266.14a3.12,3.12,0,0,1,3.083-3.14h26.833A3.109,3.109,0,0,1,553,266.14v18.718A3.12,3.12,0,0,1,549.916,288Zm-23.728-21.865a1.031,1.031,0,0,0-1.04-1.052H523.1a1.031,1.031,0,0,0-1.041,1.052V268.2a1.031,1.031,0,0,0,1.041,1.052h2.042a1.032,1.032,0,0,0,1.042-1.052v-2.063Zm0,8.334a1.031,1.031,0,0,0-1.04-1.052H523.1a1.03,1.03,0,0,0-1.041,1.052v2.062a1.03,1.03,0,0,0,1.041,1.052h2.042a1.031,1.031,0,0,0,1.042-1.052v-2.062Zm0,8.333a1.031,1.031,0,0,0-1.04-1.052H523.1a1.031,1.031,0,0,0-1.041,1.052v2.063a1.031,1.031,0,0,0,1.041,1.052h2.042a1.032,1.032,0,0,0,1.042-1.052V282.8Zm18.562-17.719h-16.5v20.834h16.5V265.083Zm6.187,1.052a1.03,1.03,0,0,0-1.039-1.052h-2.044a1.032,1.032,0,0,0-1.042,1.052V268.2a1.031,1.031,0,0,0,1.04,1.052H549.9a1.031,1.031,0,0,0,1.041-1.052v-2.063Zm0,8.334a1.03,1.03,0,0,0-1.039-1.052h-2.044a1.031,1.031,0,0,0-1.042,1.052v2.062a1.031,1.031,0,0,0,1.04,1.052H549.9a1.03,1.03,0,0,0,1.041-1.052v-2.062Zm0,8.333a1.03,1.03,0,0,0-1.039-1.052h-2.044a1.032,1.032,0,0,0-1.042,1.052v2.063a1.031,1.031,0,0,0,1.04,1.052H549.9a1.031,1.031,0,0,0,1.041-1.052V282.8ZM533.6,270.153l6.875,4.326a1.255,1.255,0,0,1,0,2.041l-6.875,4.327a1.073,1.073,0,0,1-1.6-1.008v-8.678A1.076,1.076,0,0,1,533.6,270.153Z" transform="translate(-520 -258.998)"/>
</svg>
