<svg xmlns="http://www.w3.org/2000/svg" width="32" height="32" viewBox="0 0 32 32">
  <defs>
    <style>
      .cls-1 {
        fill: #2f2f2f;
        fill-rule: evenodd;
      }
    </style>
  </defs>
  <path id="vip" class="cls-1" d="M447.946,638.795a5.426,5.426,0,0,1-5.438,4.8h-5.09l-0.432,3.214h-3.029l0.875-6.517h8.411a1.648,1.648,0,0,0,1.1-.413,1.685,1.685,0,0,0,.573-1.1,1.247,1.247,0,0,0-.281-1.078,1.3,1.3,0,0,0-1-.4h-8.41l2.445-3.3H443.8A3.962,3.962,0,0,1,447.946,638.795ZM429.273,646.8l1.719-12.8h3.029L432.3,646.8h-3.029Zm-7.749.2q-0.733,0-1.272-1.456L416,634h3.289l2.879,7.921L426.932,634h3.313l-7.109,11.561Q422.257,647,421.524,647Z" transform="translate(-416 -624.5)"/>
</svg>
