<svg xmlns="http://www.w3.org/2000/svg" width="32" height="31.469" viewBox="0 0 32 31.469">
  <defs>
    <style>
      .cls-1 {
        fill: #2f2f2f;
        fill-rule: evenodd;
      }
    </style>
  </defs>
  <path id="wallet" class="cls-1" d="M444,1020H420a4,4,0,0,1-4-4v-16a4,4,0,0,1,4-4h24a4,4,0,0,1,4,4v3h-8a4,4,0,0,0-4,4v2a4,4,0,0,0,4,4h8v3A4,4,0,0,1,444,1020Zm-7-12a4,4,0,0,1,4-4h7v8h-7A4,4,0,0,1,437,1008Zm6,0a2,2,0,1,0-2,2A2,2,0,0,0,443,1008Zm-1.549-19.376a3,3,0,0,1,3.674,2.122L446,994H421.389Z" transform="translate(-416 -988.531)"/>
</svg>
