<svg xmlns="http://www.w3.org/2000/svg" width="32" height="32" viewBox="0 0 32 32">
  <defs>
    <style>
      .cls-1 {
        fill: #2f2f2f;
        fill-rule: evenodd;
      }
    </style>
  </defs>
  <path id="warning" class="cls-1" d="M340.621,708H315.377c-2.575,0-4.22-3.206-2.932-5.69l12.586-24.445a3.3,3.3,0,0,1,5.936,0l12.587,24.445C344.841,704.872,343.2,708,340.621,708Zm-11.21-23.057a2.127,2.127,0,0,0-1.784-.986,2.182,2.182,0,0,0-1.771.965,3.675,3.675,0,0,0-.74,2.307,5.3,5.3,0,0,0,.181,1.329l2.235,8.744h0.216l2.235-8.744a4.455,4.455,0,0,0,.138-1.129A4.142,4.142,0,0,0,329.411,684.941Zm0.065,14.631a2.367,2.367,0,0,0-3.616-.007,2.755,2.755,0,0,0,0,3.858,2.367,2.367,0,0,0,3.616-.007A2.726,2.726,0,0,0,329.476,699.572Z" transform="translate(-312 -676)"/>
</svg>
