<svg xmlns="http://www.w3.org/2000/svg" width="32" height="32" viewBox="0 0 32 32">
  <defs>
    <style>
      .cls-1 {
        fill: #2f2f2f;
        fill-rule: evenodd;
      }
    </style>
  </defs>
  <path id="wechat" class="cls-1" d="M590.226,590.457a1.758,1.758,0,1,1,1.745-1.76,1.752,1.752,0,0,1-1.745,1.76M604,591.713c0-4.519-4.04-8.219-9.16-8.538-0.24-.013-0.48-0.022-0.72-0.022-5.458,0-9.88,3.833-9.88,8.56a7.4,7.4,0,0,0,.293,2.063c1.062,3.731,4.951,6.5,9.587,6.5a11.034,11.034,0,0,0,4.386-.89l2.218,1.51s0.591,0.411.534-.381l-0.627-2.364A8.091,8.091,0,0,0,604,591.713m-9.88-9.273c0.213,0,.422.01,0.631,0.019-0.813-4.785-5.569-8.459-11.315-8.459C577.12,574,572,578.44,572,583.91a9.433,9.433,0,0,0,4.089,7.6l-0.845,3.173s-0.288,1.054.8,0.581l3.151-2.143a12.879,12.879,0,0,0,4.236.709c0.129,0,.253-0.01.377-0.01a8.084,8.084,0,0,1-.28-2.1c0-5.112,4.751-9.273,10.587-9.273m4.52,8.016a1.758,1.758,0,1,1,1.744-1.76,1.752,1.752,0,0,1-1.744,1.76m-20.565-7.9a1.757,1.757,0,1,1,1.744-1.76,1.752,1.752,0,0,1-1.744,1.76m10.327,0a1.758,1.758,0,1,1,1.745-1.76,1.752,1.752,0,0,1-1.745,1.76" transform="translate(-572 -571.515)"/>
</svg>
