<svg xmlns="http://www.w3.org/2000/svg" width="32" height="32" viewBox="0 0 32 32">
  <defs>
    <style>
      .cls-1 {
        fill: #2f2f2f;
        fill-rule: evenodd;
      }
    </style>
  </defs>
  <path id="weibo" class="cls-1" d="M687.5,588.914a5.02,5.02,0,0,0-4.662,5.647,2.787,2.787,0,0,0,1.414,2.4,6.045,6.045,0,0,0,7.863-1.436C693.717,593.417,692.775,588.292,687.5,588.914Zm-1.329,7.047a1.444,1.444,0,0,1-1.777-1.3,1.9,1.9,0,0,1,1.689-1.81,1.517,1.517,0,0,1,1.866,1.39A1.919,1.919,0,0,1,686.167,595.961Zm3.107-2.692a0.6,0.6,0,0,1-.919-0.085,0.8,0.8,0,0,1,.222-1.021,0.629,0.629,0,0,1,.971.086A0.839,0.839,0,0,1,689.274,593.269Zm12.365-18.059a10.591,10.591,0,0,0-4.314.043,1.039,1.039,0,0,0-.119.051,0.056,0.056,0,0,0-.03.024,1.281,1.281,0,0,0-.916,1.238,1.268,1.268,0,0,0,1.257,1.278,5.931,5.931,0,0,0,1.138-.275,6.575,6.575,0,0,1,6.229,3.133,5.8,5.8,0,0,1,.386,4.242,3.823,3.823,0,0,0-.249,1.231,1.159,1.159,0,0,0,1.251,1.149,1.024,1.024,0,0,0,1.207-1.077h0.009C709.544,579.276,704.97,576,701.639,575.21Zm0.628,10.273a0.861,0.861,0,0,0,.845-0.736,0.33,0.33,0,0,0,.013-0.095c0.643-5.886-4.742-4.872-4.742-4.872a0.88,0.88,0,0,0,0,1.76c3.868-.867,3.013,3.066,3.013,3.066A0.873,0.873,0,0,0,702.267,585.483Zm-2.566,2.173c-1.245-.245-0.64-0.926-0.64-0.926s1.217-2.043-.241-3.526c-1.809-1.839-6.2.235-6.2,0.235-1.679.528-1.234-.244-1-1.556,0-1.547-.521-4.163-4.992-2.617s-8.3,7-8.3,7c-2.666,3.619-2.314,6.415-2.314,6.415,0.667,6.175,7.118,7.869,12.135,8.271,5.278,0.42,12.4-1.851,14.564-6.516S700.949,587.91,699.7,587.656ZM688.542,599.21c-5.241.249-9.476-2.424-9.476-5.98s4.235-6.415,9.476-6.661,9.488,1.952,9.488,5.5S693.785,598.967,688.542,599.21Z" transform="translate(-676 -572)"/>
</svg>
