<svg xmlns="http://www.w3.org/2000/svg" width="31.39" height="32" viewBox="0 0 32.031 32.653">
  <defs>
    <style>
      .cls-1 {
        fill: #2f2f2f;
        fill-rule: evenodd;
      }
    </style>
  </defs>
  <path id="wifi" class="cls-1" d="M278.158,964.042a3.392,3.392,0,0,0,0-4.594,2.913,2.913,0,0,0-4.315,0,3.4,3.4,0,0,0,0,4.6A2.917,2.917,0,0,0,278.158,964.042Zm10.791-12.837a2.945,2.945,0,0,1-2.158-.953,14.627,14.627,0,0,0-21.582,0,2.924,2.924,0,0,1-4.317,0,3.4,3.4,0,0,1,0-4.6,20.475,20.475,0,0,1,30.213,0,3.4,3.4,0,0,1,0,4.6A2.942,2.942,0,0,1,288.949,951.205Zm-19.423,6.9a2.945,2.945,0,0,1-2.158-.953,3.4,3.4,0,0,1,0-4.6,11.7,11.7,0,0,1,17.264,0,3.4,3.4,0,0,1,0,4.6,2.924,2.924,0,0,1-4.317,0,5.85,5.85,0,0,0-8.633,0A2.945,2.945,0,0,1,269.526,958.1Z" transform="translate(-260 -935.673)"/>
</svg>
