<svg xmlns="http://www.w3.org/2000/svg" width="32" height="32" viewBox="0 0 32 32">
  <defs>
    <style>
      .cls-1 {
        fill: #2f2f2f;
        fill-rule: evenodd;
      }
    </style>
  </defs>
  <path id="woman" class="cls-1" d="M132.642,336.719a6.483,6.483,0,0,1,.26,1.229,11.583,11.583,0,0,1,.1,1.517,8.577,8.577,0,0,1-.114,1.437,2.447,2.447,0,0,1-.342.99,2.051,2.051,0,0,1-.911.479,14.924,14.924,0,0,1-1.872.479q-1.124.224-2.491,0.431t-2.751.368q-1.383.159-2.653,0.255t-2.214.1q-1.4,0-3.354-.192t-3.793-.479q-1.839-.287-3.239-0.591a5.683,5.683,0,0,1-1.693-.526,2.715,2.715,0,0,1-.5-1.549,12.423,12.423,0,0,1,.114-3.338,2.689,2.689,0,0,1,.993-1.788,6.674,6.674,0,0,1,1.84-.974,22.084,22.084,0,0,1,2.165-.639,6.4,6.4,0,0,0,1.969-.814,5.59,5.59,0,0,0,.961-0.719,2.823,2.823,0,0,0,.521-0.67,1.816,1.816,0,0,0,.211-0.7,4.637,4.637,0,0,0,0-.782l-2.8-.416A3.357,3.357,0,0,1,112,328.639a8.03,8.03,0,0,1-.717-1.837,11.518,11.518,0,0,1-.325-3.018q0-1.533.163-3.273a11.8,11.8,0,0,1,.8-3.321,8.509,8.509,0,0,1,1.889-2.843,7.593,7.593,0,0,1,3.4-1.868,7.728,7.728,0,0,1,2.474-.415q0.359-.031.684-0.048t0.684-.016a6.287,6.287,0,0,1,2.865.639,7.552,7.552,0,0,1,2.213,1.676,9.976,9.976,0,0,1,1.58,2.332,16.554,16.554,0,0,1,1.025,2.618,15.459,15.459,0,0,1,.537,2.555,11.064,11.064,0,0,1,.082,2.092,9.23,9.23,0,0,1-.407,2.4,16.159,16.159,0,0,1-.7,1.821,9.527,9.527,0,0,1-.944,1.6l-3.224.511a3.067,3.067,0,0,0,.391,1.708,3.836,3.836,0,0,0,2.019,1.485,12.83,12.83,0,0,0,1.741.559q0.962,0.24,1.856.559a6.277,6.277,0,0,1,1.6.83,2.579,2.579,0,0,1,.96,1.342h0Z" transform="translate(-104 -312)"/>
</svg>
