<svg xmlns="http://www.w3.org/2000/svg" width="32" height="32" viewBox="0 0 32 32">
  <defs>
    <style>
      .cls-1 {
        fill: #2f2f2f;
        fill-rule: evenodd;
      }
    </style>
  </defs>
  <path id="wrench" class="cls-1" d="M395.219,181.562L384.488,170.83A10.67,10.67,0,0,0,370.5,156.842l5.108,5.108a2.666,2.666,0,0,1,0,3.772l-1.885,1.886a2.668,2.668,0,0,1-3.772,0l-5.107-5.109a10.67,10.67,0,0,0,13.987,13.988l10.73,10.732a2.667,2.667,0,0,0,3.771,0l1.886-1.886A2.667,2.667,0,0,0,395.219,181.562Z" transform="translate(-364 -156)"/>
</svg>
